<?xml version="1.0" encoding="UTF-8" standalone="no"?>
<!-- Created with Inkscape (http://www.inkscape.org/) -->

<svg
   xmlns:dc="http://purl.org/dc/elements/1.1/"
   xmlns:cc="http://creativecommons.org/ns#"
   xmlns:rdf="http://www.w3.org/1999/02/22-rdf-syntax-ns#"
   xmlns:svg="http://www.w3.org/2000/svg"
   xmlns="http://www.w3.org/2000/svg"
   version="1.1"
   width="160.492"
   height="193.49001"
   viewBox="0 0 160.492 193.49"
   id="Layer_1"
   xml:space="preserve"><metadata
   id="metadata19006"><rdf:RDF><cc:Work
       rdf:about=""><dc:format>image/svg+xml</dc:format><dc:type
         rdf:resource="http://purl.org/dc/dcmitype/StillImage" /><dc:title></dc:title></cc:Work></rdf:RDF></metadata><defs
   id="defs19004" />
<path
   d="M 150.073,82.517 C 150.073,42.66 118.171,5.738 78.406,5.738 38.642,5.738 6.073,42.66 6.073,82.517 c 0,26.177 13.905,49.097 34.716,61.749 l -19.095,44.64 118.95,-0.334 -27.402,-43.088 c 21.972,-12.357 36.831,-35.918 36.831,-62.967 z"
   id="path18756"
   style="fill:#708690;fill-opacity:1" />
<path
   d="m 123.195,44.41 -15.463,12.443 1.089,1.379 c 2.819,3.834 4.972,8.133 6.405,12.654 6.327,-1.926 12.663,-3.823 19.002,-5.691 2.08,6.83 3.029,14.006 2.737,21.112 -6.69,-0.35 -13.382,-0.672 -20.075,-0.966 -0.191,5.333 -1.363,10.586 -3.467,15.458 6.041,2.685 12.071,5.396 18.09,8.133 -2.812,6.529 -6.813,12.511 -11.628,17.704 l -14.488,-13.568 c -2.815,3.154 -6.099,5.92 -9.731,8.116 3.695,-1.909 7.141,-4.396 10.168,-7.343 4.34,4.757 8.553,9.681 12.592,14.721 1.085,0.102 2.164,0.156 3.273,0.203 5.173,-5.597 9.396,-12.08 12.337,-19.117 -0.463,-0.824 -0.988,-1.652 -1.495,-2.449 -5.91,-1.883 -11.765,-3.885 -17.58,-6.017 2.082,-4.892 3.262,-10.148 3.507,-15.483 6.264,0.791 12.439,1.798 18.637,3.03 0.874,-0.639 1.786,-1.305 2.628,-2 0.275,-7.639 -0.798,-15.346 -3.137,-22.643 l -2.732,-0.883 c -5.703,2.45 -11.448,4.773 -17.235,6.967 -1.741,-5.049 -4.452,-9.729 -7.847,-13.792 5.248,-3.569 10.635,-6.994 16.115,-10.236 0.25,-1.063 0.457,-2.13 0.658,-3.227 -4.812,-5.956 -10.636,-11.078 -17.18,-15.026 -0.885,0.349 -1.775,0.744 -2.637,1.131 -2.862,6.109 -5.868,12.104 -9.058,18.045 3.518,-5.605 7.062,-11.198 10.628,-16.776 6.061,3.747 11.423,8.579 15.887,14.121 z"
   id="path18758"
   style="fill:#ffffff" />
<path
   d="m 32.245,44.91 15.464,12.443 -1.089,1.379 c -2.819,3.834 -4.972,8.133 -6.406,12.655 -6.327,-1.926 -12.663,-3.824 -19.002,-5.691 -2.08,6.83 -3.029,14.006 -2.737,21.111 6.691,-0.35 13.382,-0.672 20.076,-0.966 0.191,5.333 1.362,10.586 3.467,15.458 -6.042,2.685 -12.072,5.396 -18.091,8.133 2.812,6.529 6.814,12.511 11.628,17.704 l 14.488,-13.568 c 2.815,3.154 6.099,5.92 9.732,8.116 -3.696,-1.909 -7.142,-4.396 -10.168,-7.343 -4.339,4.757 -8.552,9.681 -12.592,14.721 -1.085,0.102 -2.164,0.156 -3.273,0.203 -5.172,-5.597 -9.395,-12.08 -12.337,-19.117 0.463,-0.824 0.989,-1.652 1.496,-2.449 5.91,-1.883 11.764,-3.885 17.58,-6.017 -2.082,-4.892 -3.262,-10.148 -3.507,-15.483 -6.264,0.791 -12.44,1.798 -18.637,3.03 -0.874,-0.639 -1.786,-1.305 -2.628,-2 -0.275,-7.639 0.798,-15.345 3.137,-22.643 l 2.733,-0.882 c 5.703,2.45 11.448,4.773 17.235,6.967 1.742,-5.05 4.452,-9.729 7.847,-13.792 C 41.413,53.31 36.026,49.885 30.545,46.643 30.295,45.58 30.088,44.513 29.887,43.416 34.699,37.46 40.523,32.338 47.067,28.39 c 0.885,0.349 1.776,0.744 2.638,1.131 2.862,6.109 5.868,12.104 9.057,18.045 C 55.244,41.961 51.701,36.368 48.134,30.79 42.071,34.536 36.709,39.368 32.245,44.91 z"
   id="path18760"
   style="fill:#ffffff" />
<path
   d="m 72.83,18.165 c -0.024,0.039 -0.048,0.087 -0.072,0.145 l 0,0 c 0.024,-0.059 0.048,-0.106 0.072,-0.145 z"
   id="path18762"
   style="fill:none" />
<path
   d="m 73.259,18.003 c -0.039,0.008 -0.073,0.015 -0.095,0.03 0,0 -0.05,-0.041 -0.121,-0.036 0.073,-0.004 0.124,0.041 0.124,0.041 0.021,-0.017 0.055,-0.026 0.092,-0.035 z"
   id="path18764"
   style="fill:none" />
<path
   d="m 53.376,37.017 c 0.066,-0.285 0.146,-0.565 0.227,-0.847 -0.08,0.281 -0.16,0.562 -0.227,0.847 z"
   id="path18766"
   style="fill:none" />
<path
   d="m 53.749,35.652 c 0.096,-0.302 0.206,-0.601 0.316,-0.898 -0.11,0.298 -0.22,0.596 -0.316,0.898 z"
   id="path18768"
   style="fill:none" />
<path
   d="m 73.536,17.751 0,0 c -0.014,0.069 -0.039,0.116 -0.069,0.152 0.031,-0.035 0.055,-0.084 0.069,-0.152 z"
   id="path18770"
   style="fill:none" />
<path
   d="m 73.579,17.725 c 0.07,-0.037 0.171,-0.08 0.225,-0.101 -0.052,0.016 -0.154,0.06 -0.225,0.101 z"
   id="path18772"
   style="fill:none" />
<path
   d="m 72.482,18.97 c -0.004,0.003 -0.01,0.003 -0.015,0.007 0.353,-0.073 0.715,-0.136 1.077,-0.19 0.064,-0.065 0.14,-0.145 0.205,-0.219 -0.064,0.071 -0.139,0.15 -0.202,0.214 -0.358,0.063 -0.714,0.125 -1.065,0.188 z"
   id="path18774"
   style="fill:none" />
<path
   d="m 74.471,18.482 c 0,-0.027 0,-0.027 0,-0.027 h -0.003 c 0,0.004 0,0.014 0,0.032 0,0.017 0.057,0.066 0.141,0.135 -0.083,-0.074 -0.138,-0.124 -0.138,-0.14 z"
   id="path18776"
   style="fill:none" />
<path
   d="m 74.305,17.462 0,0 c -0.036,-0.019 -0.054,0.308 -0.082,0.29 -0.079,-0.022 -0.152,-0.044 -0.216,-0.065 0.064,0.023 0.138,0.047 0.219,0.069 0.026,0.009 0.044,-0.293 0.079,-0.294 z"
   id="path18778"
   style="fill:none" />
<path
   d="m 75.068,18.6 c 0.142,-0.013 0.281,-0.031 0.423,-0.04 0.09,-0.035 0.18,-0.07 0.268,-0.105 -0.086,0.034 -0.176,0.068 -0.265,0.101 -0.143,0.012 -0.283,0.029 -0.426,0.044 z"
   id="path18780"
   style="fill:none" />
<path
   d="m 75.404,17.411 c 0.478,-0.113 0.704,0.042 0.811,0.243 -0.106,-0.203 -0.332,-0.361 -0.813,-0.247 -0.354,0.118 -0.58,0.245 -0.725,0.472 -0.012,0 -0.081,-0.017 -0.166,-0.038 0.085,0.024 0.156,0.042 0.168,0.042 0.145,-0.227 0.371,-0.362 0.725,-0.472 z"
   id="path18782"
   style="fill:none" />
<path
   d="m 57.316,116.729 c 0.171,0.146 0.35,0.3 0.533,0.459 0.196,0.163 0.383,0.321 0.568,0.478 -0.185,-0.158 -0.37,-0.319 -0.566,-0.481 -0.184,-0.159 -0.362,-0.311 -0.535,-0.456 z"
   id="path18784"
   style="fill:none" />
<path
   d="m 55.68,33.767 c -0.012,0.02 -0.026,0.038 -0.039,0.057 0.012,-0.02 0.026,-0.038 0.039,-0.057 z"
   id="path18786"
   style="fill:none" />
<path
   d="m 54.012,37.702 c -0.034,0.155 -0.067,0.31 -0.094,0.456 0.028,-0.147 0.059,-0.299 0.094,-0.456 z"
   id="path18788"
   style="fill:none" />
<path
   d="m 85.508,27.622 c 0.068,0.147 0.133,0.294 0.201,0.439 -0.068,-0.145 -0.132,-0.292 -0.201,-0.439 z"
   id="path18790"
   style="fill:none" />
<path
   d="m 54.223,34.323 c 0.13,-0.326 0.274,-0.646 0.421,-0.965 -0.147,0.318 -0.292,0.639 -0.421,0.965 z"
   id="path18792"
   style="fill:none" />
<path
   d="m 84.978,123.961 c -0.829,0.14 -1.676,0.261 -2.547,0.351 0.869,-0.092 1.718,-0.211 2.547,-0.351 z"
   id="path18794"
   style="fill:none" />
<path
   d="m 75.265,27.337 c 5.932,-0.798 10.451,1.226 10.769,1.434 C 86.032,28.769 86.031,28.767 86.031,28.765 85.687,28.553 81.18,26.536 75.268,27.333 68.955,28.187 58.74,31.799 55.859,38.054 l -0.76,-0.172 c 0.354,-0.771 0.804,-1.594 1.354,-2.438 -0.551,0.844 -1.002,1.669 -1.357,2.442 l 0.761,0.172 c 2.88,-6.254 13.096,-9.867 19.408,-10.721 z"
   id="path18796"
   style="fill:none" />
<path
   d="m 54.791,33.029 c 0.17,-0.354 0.354,-0.7 0.543,-1.044 -0.19,0.345 -0.374,0.691 -0.543,1.044 z"
   id="path18798"
   style="fill:none" />
<path
   d="m 83.049,19.751 c 0.226,0.066 0.453,0.123 0.677,0.195 -0.224,-0.071 -0.451,-0.129 -0.677,-0.195 z"
   id="path18800"
   style="fill:none" />
<path
   d="m 57.013,32.018 c -0.143,0.164 -0.286,0.328 -0.422,0.496 0.136,-0.168 0.279,-0.332 0.422,-0.496 z"
   id="path18802"
   style="fill:none" />
<path
   d="m 57.462,31.524 c -0.114,0.122 -0.231,0.243 -0.342,0.368 0.111,-0.125 0.228,-0.246 0.342,-0.368 z"
   id="path18804"
   style="fill:none" />
<path
   d="m 56.346,32.833 c -0.083,0.108 -0.169,0.214 -0.249,0.325 0.08,-0.111 0.166,-0.217 0.249,-0.325 z"
   id="path18806"
   style="fill:none" />
<path
   d="m 72.548,18.805 c 0,0.017 0,0.079 0,0.133 0.001,0 0.001,-10e-4 0.002,-10e-4 0,-0.055 0,-0.118 0,-0.136 -0.117,-0.063 -0.321,-0.27 -0.146,-0.486 0,0 0,0 0,0 -0.182,0.208 0.026,0.417 0.144,0.49 z"
   id="path18808"
   style="fill:none" />
<path
   d="m 98.474,36.677 c -0.291,0.057 -0.608,0.083 -0.954,0.069 -0.309,-0.01 -0.714,-0.089 -1.191,-0.23 0.477,0.143 0.881,0.224 1.188,0.234 0.347,0.012 0.665,-0.015 0.957,-0.073 z"
   id="path18810"
   style="fill:none" />
<path
   d="m 91.425,29.899 c -1.69,0.934 -2.398,2.207 -2.331,2.902 0.045,0.489 0.168,0.896 0.349,1.232 -0.179,-0.334 -0.3,-0.74 -0.346,-1.227 -0.069,-0.695 0.639,-1.97 2.328,-2.907 z"
   id="path18812"
   style="fill:none" />
<path
   d="m 79.437,18.497 c 0.003,-0.001 0.006,-0.007 0.01,-0.007 -0.004,0 -0.007,0.005 -0.01,0.007 z"
   id="path18814"
   style="fill:none" />
<path
   d="m 79.488,18.519 c -0.023,0 -0.048,0 -0.078,0 -10e-4,0.002 -0.004,0.002 -0.006,0.004 0.036,0 0.063,0 0.091,0 -0.003,-0.003 -0.005,-0.002 -0.007,-0.004 z"
   id="path18816"
   style="fill:none" />
<path
   d="m 79.186,15.918 c 10e-4,-10e-4 0,-0.002 0,-0.004 -0.003,0 -0.051,0.006 -0.125,0.015 0.075,-0.007 0.125,-0.011 0.125,-0.011 z"
   id="path18818"
   style="fill:none" />
<path
   d="m 66.696,147.896 h 0.209 l 1.133,0.037 c 0.062,-0.908 0.171,-1.853 0.316,-2.879 l -0.652,0.572 c -0.299,0.907 -0.634,1.679 -1.006,2.27 z"
   id="path18820"
   style="fill:none" />
<path
   d="m 73.006,18.005 c 0.009,-0.002 0.019,-0.007 0.027,-0.008 -0.009,0.002 -0.018,0.006 -0.027,0.008 z"
   id="path18822"
   style="fill:none" />
<path
   d="m 98.482,39.465 c 0.458,-0.278 0.905,-0.638 1.348,-1.103 0.461,-0.426 0.796,-0.879 1.04,-1.351 -0.001,-0.002 -0.001,-0.004 -0.001,-0.006 -0.245,0.472 -0.58,0.926 -1.042,1.353 -0.442,0.468 -0.888,0.829 -1.345,1.107 z"
   id="path18824"
   style="fill:none" />
<path
   d="m 96.901,40.083 c 0.002,0 0.004,0.002 0.006,0.003 0.383,-0.073 0.752,-0.211 1.114,-0.384 -0.364,0.173 -0.734,0.31 -1.12,0.381 z"
   id="path18826"
   style="fill:none" />
<path
   d="m 97.31,40.337 c 0.833,0.488 2.074,1.031 3.146,1.013 -1.073,0.015 -2.313,-0.53 -3.146,-1.013 z"
   id="path18828"
   style="fill:none" />
<path
   d="m 81.967,17.86 c -0.409,-0.03 -0.727,-0.186 -1.007,-0.367 0.279,0.183 0.596,0.34 1.005,0.372 0,-0.002 10e-4,-0.003 0.002,-0.005 z"
   id="path18830"
   style="fill:none" />
<path
   d="m 76.652,15.915 0.001,-10e-4 c 0.342,-1.919 2.089,-2.906 2.115,-2.92 0,-10e-4 0.002,-0.007 0.002,-0.007 0,0 -1.773,0.997 -2.118,2.928 z"
   id="path18832"
   style="fill:none" />
<path
   d="m 79.071,16.235 c -0.057,-0.107 -0.137,-0.207 -0.295,-0.277 0,0 -10e-4,0 -0.003,0 0.16,0.07 0.24,0.17 0.298,0.277 z"
   id="path18834"
   style="fill:none" />
<path
   d="m 76.363,14.551 c -0.223,-1.149 -0.015,-2.466 0.564,-3.287 -0.582,0.821 -0.791,2.141 -0.567,3.292 0.002,-0.002 0.002,-0.004 0.003,-0.005 z"
   id="path18836"
   style="fill:none" />
<path
   d="m 72.871,18.11 c 0.01,-0.013 0.02,-0.029 0.03,-0.039 -0.01,0.01 -0.02,0.027 -0.03,0.039 z"
   id="path18838"
   style="fill:none" />
<path
   d="m 72.956,18.028 c 0.004,-0.002 0.009,-0.008 0.014,-0.01 -0.005,0.002 -0.01,0.008 -0.014,0.01 z"
   id="path18840"
   style="fill:none" />
<path
   d="m 77.813,17.975 c -0.409,0 -0.686,-0.085 -0.85,-0.235 0.165,0.154 0.44,0.238 0.847,0.238 0,0 0.435,-0.063 1.259,-0.172 0.099,-0.024 0.193,-0.057 0.286,-0.087 -0.092,0.028 -0.186,0.059 -0.284,0.083 -0.824,0.117 -1.258,0.173 -1.258,0.173 z"
   id="path18842"
   style="fill:none" />
<path
   d="m 76.889,16.612 c 0,-0.047 -0.01,-0.074 -0.027,-0.094 0.016,0.019 0.025,0.049 0.025,0.098 0,0.146 -0.036,0.454 -0.091,0.845 0.018,0.082 0.063,0.154 0.109,0.227 0,0 0,0 0.001,0.001 -0.044,-0.071 -0.089,-0.143 -0.107,-0.223 0.054,-0.4 0.09,-0.708 0.09,-0.854 z"
   id="path18844"
   style="fill:none" />
<path
   d="m 76.336,16.25 c 0,-0.038 0.02,-0.078 0.049,-0.116 -0.031,0.04 -0.052,0.08 -0.052,0.12 0,0 0.372,0.136 0.462,0.227 0.026,0.009 0.048,0.019 0.063,0.036 C 76.842,16.5 76.822,16.489 76.797,16.476 76.707,16.385 76.336,16.25 76.336,16.25 z"
   id="path18846"
   style="fill:none" />
<path
   d="m 79.706,17.639 c -0.001,0 -0.002,0 -0.003,0 0,0.053 0,0.114 0,0.167 0.722,0.055 0.789,0.273 1.23,0.371 -0.439,-0.099 -0.508,-0.314 -1.228,-0.375 0.001,-0.055 0.001,-0.11 0.001,-0.163 z"
   id="path18848"
   style="fill:none" />
<path
   d="m 80.186,16.979 c -0.109,-0.059 -0.221,-0.109 -0.338,-0.135 -0.16,-0.03 -0.292,-0.086 -0.408,-0.161 0.116,0.077 0.25,0.136 0.411,0.166 0.116,0.023 0.228,0.072 0.335,0.13 z"
   id="path18850"
   style="fill:none" />
<path
   d="m 79.209,16.43 c -0.025,-0.038 -0.063,-0.059 -0.086,-0.102 0,0.001 0.002,0.002 0.002,0.003 0.023,0.041 0.059,0.063 0.084,0.099 z"
   id="path18852"
   style="fill:none" />
<path
   d="m 55.447,31.772 c 0.216,-0.382 0.445,-0.758 0.684,-1.128 -0.238,0.371 -0.468,0.746 -0.684,1.128 z"
   id="path18854"
   style="fill:none" />
<path
   d="m 95.13,26.862 c 0.001,0.001 0.003,0.002 0.005,0.003 -0.126,-0.117 -0.245,-0.245 -0.381,-0.381 -3.063,-2.894 -6.878,-5.195 -10.965,-6.516 4.087,1.322 7.905,3.626 10.968,6.521 0.134,0.124 0.249,0.249 0.373,0.373 z"
   id="path18856"
   style="fill:none" />
<path
   d="m 65.255,21.932 c -3.507,2.134 -6.778,5.1 -9.069,8.624 2.29,-3.522 5.564,-6.486 9.069,-8.624 z"
   id="path18858"
   style="fill:none" />
<path
   d="m 70.541,19.517 c 0.172,-0.045 0.353,-0.09 0.525,-0.136 2.603,-0.672 5.291,-0.798 7.945,-0.477 -2.655,-0.322 -5.344,-0.197 -7.948,0.473 -0.173,0.055 -0.354,0.091 -0.525,0.136 -0.181,0.073 -0.371,0.127 -0.553,0.182 -0.716,0.229 -1.419,0.521 -2.116,0.842 0.698,-0.318 1.403,-0.608 2.119,-0.837 0.18,-0.065 0.371,-0.119 0.553,-0.183 z"
   id="path18860"
   style="fill:none" />
<path
   d="M 78.064,135.605 H 77.855 77.221 76.24 c -0.008,2.179 -0.011,4.892 0.021,7.161 l 2.128,0.117 c -0.081,-2.273 -0.214,-5.045 -0.325,-7.278 z"
   id="path18862"
   style="fill:none" />
<path
   d="m 77.52,145.661 c -0.073,0.455 -0.109,0.854 -0.182,1.254 0.372,0 0.797,0 1.242,0.009 -0.101,-0.145 -0.155,-0.3 -0.146,-0.481 0,-0.081 0,-0.209 0.009,-0.308 l -0.923,-0.474 z"
   id="path18864"
   style="fill:none" />
<path
   d="m 53.26,37.604 c -0.043,0.219 -0.096,0.434 -0.13,0.655 l 0.01,10e-4 c 0.035,-0.22 0.077,-0.438 0.12,-0.656 z"
   id="path18866"
   style="fill:none" />
<path
   d="m 81.658,32.922 c -0.636,-0.456 -1.529,-0.521 -2.009,-0.556 -0.05,0 -0.086,-0.004 -0.13,-0.009 0.044,0.005 0.082,0.009 0.132,0.014 0.48,0.035 1.371,0.1 2.007,0.551 z"
   id="path18868"
   style="fill:none" />
<path
   d="m 77.229,147.687 c -0.036,0.19 -0.063,0.354 -0.091,0.526 l 1.359,0.046 h 0.126 c -0.035,-0.046 -0.081,-0.083 -0.116,-0.137 -0.363,-0.1 -0.806,-0.29 -1.278,-0.435 z"
   id="path18870"
   style="fill:none" />
<path
   d="m 57.68,31.29 c 0.047,-0.048 0.096,-0.094 0.143,-0.141 -0.047,0.047 -0.096,0.093 -0.143,0.141 z"
   id="path18872"
   style="fill:none" />
<path
   d="m 77.623,54.139 c 0,-0.037 0,-0.073 0,-0.101 0,-0.145 0.009,-0.326 0.018,-0.526 0.063,-1.68 0.326,-5.438 0.616,-9.396 0.343,-4.911 0.707,-9.994 0.707,-11.374 l -0.01,-0.445 0.213,0.022 -0.215,-0.027 0.008,0.454 c 0,1.38 -0.361,6.464 -0.706,11.365 -0.29,3.967 -0.553,7.716 -0.616,9.396 -0.009,0.208 -0.018,0.381 -0.018,0.535 0,0.019 0,0.055 0,0.091 -8.295,5.225 -13.496,4.985 -16.613,3.471 3.117,1.521 8.319,1.761 16.616,-3.465 z"
   id="path18874"
   style="fill:none" />
<path
   d="m 91.875,127.1 c -4.912,0.688 -9.112,1.007 -12.692,1.086 3.572,-0.077 7.763,-0.396 12.662,-1.077 0.01,-0.004 0.02,-0.005 0.03,-0.009 z"
   id="path18876"
   style="fill:none" />
<path
   d="m 62.38,129.891 c 0.017,0.005 0.033,0.01 0.049,0.014 5.995,0.914 16.318,3.285 30.905,-0.635 -0.008,0 -0.014,0 -0.021,0.002 -14.614,3.921 -24.95,1.536 -30.933,0.619 z"
   id="path18878"
   style="fill:none" />
<path
   d="m 79.302,130.041 c -3.72,0.08 -6.598,-0.017 -9.039,-0.283 2.442,0.266 5.32,0.363 9.039,0.283 z"
   id="path18880"
   style="fill:none" />
<path
   d="m 70.242,129.755 c -3.297,-0.362 -5.812,-1.035 -8.581,-1.998 -0.019,-0.005 -0.042,-0.012 -0.06,-0.018 2.793,0.972 5.32,1.652 8.641,2.016 z"
   id="path18882"
   style="fill:none" />
<path
   d="m 60.37,122.603 c 0.413,0.235 1.896,1.389 5.24,2.378 -3.346,-0.991 -4.83,-2.146 -5.243,-2.383 -0.235,-0.134 -0.549,-0.429 -0.89,-0.794 0.342,0.368 0.657,0.664 0.893,0.799 z"
   id="path18884"
   style="fill:none" />
<path
   d="m 60.939,125.235 c 0.003,0.001 0.01,0.007 0.014,0.009 0.736,0.217 14.651,4.629 29.029,0.376 -0.009,0.002 -0.016,0.003 -0.024,0.004 -14.446,4.261 -28.421,-0.208 -29.019,-0.389 z"
   id="path18886"
   style="fill:none" />
<path
   d="m 65.692,125.006 c 0.023,0.007 0.048,0.014 0.071,0.021 -0.023,-0.007 -0.048,-0.014 -0.071,-0.021 z"
   id="path18888"
   style="fill:none" />
<path
   d="m 72.443,133.232 c 5.976,0.33 13.886,0.252 22.366,-2.028 -0.007,0 -0.016,0.001 -0.023,0.001 -8.472,2.274 -16.373,2.355 -22.343,2.027 z"
   id="path18890"
   style="fill:none" />
<polygon
   points="56.901,55.864 57.626,55.294 56.898,55.859 56.599,116.125 56.602,116.128 "
   id="polygon18892"
   style="fill:none" />
<path
   d="M 74.571,135.605 H 74.513 72.43 71.449 c -0.006,2.049 -0.003,4.563 0.021,6.743 0.018,1.743 0.063,3.277 0.136,4.148 0.028,0.391 -0.235,0.663 -0.643,1.189 0.326,-0.055 0.652,-0.118 0.95,-0.172 -0.107,-1.344 -0.171,-3.042 -0.244,-5.029 l 1.866,0.1 c 0.327,-1.987 0.705,-4.288 1.036,-6.979 z"
   id="path18894"
   style="fill:none" />
<path
   d="m 83.653,135.605 h -0.21 -2.862 l -0.83,0.048 c 0.498,2.908 1.047,5.316 1.491,7.403 l 0.562,0.036 c 0.181,1.398 0.371,2.76 0.516,4.085 0.771,-0.153 1.35,-0.153 1.794,0 0.009,-0.081 0.036,-0.172 0.055,-0.254 -0.092,-0.145 -0.153,-0.3 -0.146,-0.481 0.059,-1.952 -0.183,-7.136 -0.37,-10.837 z"
   id="path18896"
   style="fill:none" />
<path
   d="m 97.501,45.225 c -0.661,-0.817 -1.068,-1.598 -1.259,-2.342 0.01,-0.035 -0.069,-0.669 -0.063,-0.737 0,0 -0.001,-10e-4 -0.002,-0.002 -0.01,0.036 0.072,0.699 0.063,0.735 0.19,0.744 0.598,1.534 1.259,2.351 0.082,0.127 0.2,0.245 0.316,0.409 -0.172,0 -0.362,0.082 -0.542,0.208 0.002,10e-4 0.003,0.002 0.003,0.004 0.182,-0.127 0.371,-0.208 0.543,-0.208 -0.118,-0.164 -0.236,-0.282 -0.318,-0.418 z"
   id="path18898"
   style="fill:none" />
<path
   d="m 78.682,124.535 c -0.113,0 -0.227,0.003 -0.339,0.005 0.112,0 0.225,0 0.337,0 0.263,0 0.525,-0.018 0.788,-0.018 0.998,-0.036 1.979,-0.107 2.937,-0.207 -0.957,0.099 -1.937,0.165 -2.935,0.202 -0.262,0.009 -0.525,0.018 -0.788,0.018 z"
   id="path18900"
   style="fill:none" />
<path
   d="m 87.866,123.365 c -0.594,0.146 -1.209,0.277 -1.832,0.402 0.623,-0.121 1.236,-0.253 1.829,-0.398 0.281,-0.073 0.562,-0.154 0.843,-0.228 0.204,-0.058 0.4,-0.129 0.603,-0.19 -0.202,0.061 -0.396,0.129 -0.6,0.187 -0.282,0.082 -0.563,0.154 -0.843,0.227 z"
   id="path18902"
   style="fill:none" />
<path
   d="m 59.718,118.803 c 0.168,0.176 0.339,0.348 0.531,0.519 h 0.008 l -0.004,-0.005 c -0.193,-0.172 -0.366,-0.342 -0.535,-0.514 z"
   id="path18904"
   style="fill:none" />
<path
   d="m 76.491,124.508 c -0.526,-0.018 -1.042,-0.045 -1.558,-0.081 -0.507,-0.036 -1.014,-0.081 -1.503,-0.136 -0.489,-0.055 -0.978,-0.118 -1.458,-0.19 -1.901,-0.291 -3.667,-0.718 -5.261,-1.244 -0.247,-0.082 -0.477,-0.171 -0.712,-0.258 0.234,0.089 0.463,0.181 0.708,0.263 1.594,0.525 3.36,0.961 5.261,1.242 0.481,0.064 0.97,0.137 1.459,0.191 0.489,0.054 0.996,0.101 1.503,0.137 0.516,0.036 1.033,0.072 1.558,0.091 0.138,0 0.277,0 0.416,0 -0.138,-10e-4 -0.276,0 -0.413,-0.005 v -0.01 z"
   id="path18906"
   style="fill:none" />
<path
   d="m 93.659,121.23 c 0.065,-0.032 0.118,-0.057 0.19,-0.094 0.716,-0.359 1.715,-0.875 2.613,-1.359 -0.898,0.482 -1.896,0.996 -2.611,1.354 -0.072,0.039 -0.127,0.066 -0.192,0.099 z"
   id="path18908"
   style="fill:none" />
<path
   d="m 61.71,120.451 c -0.454,-0.306 -0.868,-0.633 -1.259,-0.968 0.391,0.339 0.804,0.666 1.256,0.972 0.063,0.036 0.118,0.063 0.173,0.118 0.173,0.106 0.354,0.215 0.534,0.324 -0.179,-0.109 -0.359,-0.218 -0.531,-0.328 -0.055,-0.046 -0.11,-0.082 -0.173,-0.118 z"
   id="path18910"
   style="fill:none" />
<path
   d="m 101.784,43.637 c -0.079,0.159 -0.168,0.326 -0.282,0.476 -0.011,-0.009 -0.044,-0.037 -0.088,-0.074 0.046,0.039 0.079,0.069 0.091,0.078 0.113,-0.148 0.2,-0.315 0.279,-0.48 z"
   id="path18912"
   style="fill:none" />
<path
   d="m 101.223,45.251 c -0.198,-0.909 -3.013,-2.799 -4.362,-3.725 1.35,0.932 4.161,2.82 4.36,3.721 -0.09,0.352 -0.188,0.713 -0.262,1.074 10e-4,0 0.002,0.001 0.002,0.001 0.073,-0.353 0.171,-0.717 0.262,-1.071 z"
   id="path18914"
   style="fill:none" />
<path
   d="m 98.424,118.639 c 0.084,-0.061 0.146,-0.111 0.171,-0.145 l 3.631,-2.56 c 0,0 0.001,-10e-4 0.001,-0.003 l -3.63,2.559 c -0.023,0.034 -0.087,0.086 -0.173,0.149 z"
   id="path18916"
   style="fill:none" />
<path
   d="m 58.957,132.442 c -2.798,-2.506 -1.993,-13.163 -1.821,-13.38 0.007,-0.01 0.032,0.008 0.064,0.036 -0.034,-0.031 -0.059,-0.05 -0.067,-0.041 -0.172,0.227 -0.979,10.875 1.821,13.389 0.158,0 0.902,0.417 1.926,0.405 -1.023,0.007 -1.767,-0.409 -1.923,-0.409 z"
   id="path18918"
   style="fill:none" />
<path
   d="m 98.866,42.117 c -0.886,-0.557 -1.813,-0.995 -2.472,-0.918 0.002,0.001 0.005,0.003 0.006,0.005 0.657,-0.075 1.582,0.359 2.466,0.913 z"
   id="path18920"
   style="fill:none" />
<path
   d="m 58.652,117.855 c 0.409,0.365 0.756,0.651 0.894,0.779 -0.232,-0.242 -0.446,-0.503 -0.644,-0.752 -0.08,-0.01 -0.161,-0.018 -0.25,-0.027 z"
   id="path18922"
   style="fill:none" />
<path
   d="m 97.52,46.096 c -10e-4,-10e-4 -0.003,-0.003 -0.005,-0.005 -2.576,-0.94 -6.68,-0.432 -13.193,3.523 6.516,-3.954 10.623,-4.467 13.198,-3.518 z"
   id="path18924"
   style="fill:none" />
<path
   d="m 117.74,162.737 c -7.472,-5.374 -13.975,-10.112 -14.065,-10.421 -0.034,-0.036 -0.145,-0.072 -0.18,-0.072 -0.59,-0.191 -1.432,-0.191 -2.418,-0.037 h -0.671 l -0.499,-0.327 c 0.771,-0.146 1.614,-0.3 2.563,-0.525 0.072,0 0.11,0 0.146,0 0.036,-0.174 0.036,-0.318 0.036,-0.509 0,-0.073 -0.771,-0.626 -2.418,-1.607 -0.217,-0.118 -0.444,-0.263 -0.662,-0.38 -1.611,-0.981 -3.188,-1.834 -4.655,-2.534 -4.691,-2.269 -7.227,-2.668 -7.679,-1.252 -0.488,-2.549 -1.226,-5.548 -1.896,-9.42 l 0.828,-0.047 h 10.902 c 2.536,-0.835 4.574,-4.466 4.574,-8.96 l 0.036,-3.085 c 0.49,-0.491 0.951,-1.026 1.277,-1.571 1.123,-1.889 1.077,-6.636 1.077,-7.416 0,-5.201 0,-10.421 0,-15.641 0,-12.364 0,-24.728 0,-37.101 0,-6.808 0,-13.616 0,-20.424 0,-11.175 -8.559,-19.1 -18.548,-21.859 C 85.045,17.978 82.726,16.1 80.046,15.8 80.018,15.763 80.018,15.682 79.991,15.628 79.927,15.31 79.9,14.893 79.873,14.402 79.701,12.224 79.321,10.807 78.687,10.163 77.799,9.292 76.359,9.846 75.924,12.342 c -0.072,0.373 -0.145,1.153 -0.145,2.497 v 0.018 c -0.063,0.073 -0.063,0.118 -0.118,0.208 -0.035,0 -0.117,0 -0.181,-0.091 -1.866,0 -2.437,1.38 -2.781,2.151 -1.812,0.509 -2.146,1.871 -2.182,2.325 -0.191,0.055 -0.381,0.118 -0.563,0.172 -10.261,3.123 -19.227,11.574 -19.227,22.939 0,7.399 0,14.806 0,22.204 0,16.603 0.326,34.495 0.326,51.098 0.009,0.072 0.027,0.127 0.045,0.19 0.435,2.188 1.177,4.085 2.4,5.429 l 0.262,5.164 c 0,4.494 2.047,8.125 4.565,8.96 h 11.393 0.058 c -0.314,2.559 -0.673,4.768 -0.992,6.688 l -2.518,-0.154 c -0.661,1.217 -4.483,0.608 -5.289,2.516 -0.444,-0.337 -0.915,-0.654 -1.358,-0.999 -1.685,-1.099 -3.116,-1.834 -4.283,-2.115 -0.398,0.545 -17.452,8.188 -10.678,17.701 -7.937,-0.537 -10.185,0.94 -13.757,7.246 l -9.211,22.417 h 118.95 c 0.004,-0.001 -12.73,-18.87 -22.9,-26.169 z m -49.702,-14.804 -1.133,-0.037 h -0.209 c 0.372,-0.591 0.707,-1.362 1.006,-2.27 l 0.652,-0.572 c -0.145,1.026 -0.254,1.97 -0.316,2.879 z M 100.87,37.011 c 0.324,1.314 0.56,2.656 0.713,4.034 -0.327,0.209 -0.714,0.298 -1.127,0.305 -1.071,0.018 -2.313,-0.525 -3.146,-1.013 -0.147,-0.086 -0.284,-0.172 -0.403,-0.251 -0.002,0 -0.004,-0.002 -0.006,-0.003 0.386,-0.071 0.756,-0.208 1.12,-0.381 0.154,-0.073 0.31,-0.145 0.461,-0.237 0.457,-0.278 0.903,-0.64 1.345,-1.107 0.462,-0.427 0.797,-0.881 1.042,-1.353 0,0.002 0,0.004 0.001,0.006 z m -5.818,-0.959 c -1.085,-0.417 -2.09,-0.654 -2.996,-0.654 -1.031,0 -2.078,-0.362 -2.613,-1.365 -0.181,-0.335 -0.304,-0.743 -0.349,-1.232 -0.067,-0.695 0.641,-1.968 2.331,-2.902 1.243,-0.687 3.015,-1.192 5.412,-1.146 1.703,2.115 2.845,4.393 3.605,6.79 -0.456,0.511 -1.095,0.96 -1.969,1.134 -0.292,0.058 -0.61,0.085 -0.957,0.074 -0.308,-0.01 -0.712,-0.092 -1.188,-0.234 -0.378,-0.114 -0.8,-0.264 -1.276,-0.465 z M 79.41,18.519 c 0.009,-0.011 0.018,-0.018 0.027,-0.022 0.003,-0.001 0.006,-0.007 0.01,-0.007 0.012,-10e-4 0.025,0.01 0.041,0.029 0.002,0.003 0.004,0.001 0.007,0.004 -0.027,0 -0.055,0 -0.091,0 0.002,-0.002 0.005,-0.002 0.006,-0.004 z m -0.64,-5.533 c 0,0 -0.002,0.006 -0.002,0.007 -0.006,0.019 -0.135,0.432 -0.17,0.937 -0.064,0.997 0.675,1.36 0.588,1.984 0,10e-4 10e-4,0.002 0,0.004 0,0 -0.05,0.004 -0.125,0.011 -0.078,0.007 -0.185,0.016 -0.291,0.025 0.002,10e-4 0.003,0.003 0.005,0.004 0.159,0.07 0.239,0.17 0.295,0.277 0.017,0.031 0.04,0.059 0.053,0.091 0,0 0,0 0,0.001 0.022,0.043 0.061,0.064 0.086,0.102 0.066,0.097 0.137,0.19 0.23,0.253 0.116,0.075 0.248,0.131 0.408,0.161 0.117,0.025 0.229,0.076 0.338,0.135 0.253,0.137 0.497,0.335 0.774,0.515 0.28,0.181 0.598,0.337 1.007,0.367 -10e-4,0.001 -0.002,0.003 -0.002,0.004 -0.054,0.119 -0.138,0.359 -0.433,0.359 -0.266,0.004 -0.453,-0.015 -0.6,-0.047 -0.441,-0.098 -0.509,-0.316 -1.23,-0.371 0,-0.053 0,-0.114 0,-0.167 0,-0.002 0,-0.003 0,-0.005 -0.112,0.01 -0.229,0.046 -0.348,0.085 -0.093,0.03 -0.188,0.063 -0.286,0.087 -0.824,0.109 -1.259,0.172 -1.259,0.172 -0.407,0 -0.682,-0.084 -0.847,-0.238 -0.018,-0.018 -0.042,-0.032 -0.057,-0.051 0,0 0,-10e-4 -10e-4,-10e-4 -0.045,-0.073 -0.091,-0.145 -0.109,-0.227 0.055,-0.391 0.091,-0.699 0.091,-0.845 0,-0.049 -0.009,-0.079 -0.025,-0.098 0,0 -0.002,0 -0.002,-0.001 -0.016,-0.018 -0.037,-0.027 -0.063,-0.036 -0.09,-0.091 -0.462,-0.227 -0.462,-0.227 0,-0.04 0.021,-0.08 0.052,-0.12 0.09,-0.115 0.266,-0.216 0.266,-0.216 0,-10e-4 0.001,-0.002 0.001,-0.003 0.345,-1.93 2.118,-2.928 2.118,-2.928 z m -1.842,-1.722 c 0.193,-0.273 0.427,-0.491 0.701,-0.629 -0.018,0.045 -0.099,0.254 -0.136,0.381 0.173,0 1.295,0 0.118,1.098 -0.707,0.454 -0.96,1.361 -1.051,1.87 -0.054,0.225 -0.107,0.413 -0.197,0.566 -0.001,10e-4 -0.001,0.003 -0.002,0.005 -0.224,-1.151 -0.015,-2.471 0.567,-3.291 z m -4.525,7.051 c 0,0 10e-4,0 0,0 0.181,-0.208 0.326,-0.055 0.353,0 0,-0.002 0.001,-0.003 0.002,-0.005 0.023,-0.058 0.047,-0.106 0.072,-0.145 0.014,-0.022 0.027,-0.037 0.041,-0.054 0.01,-0.013 0.02,-0.029 0.03,-0.039 0.019,-0.02 0.037,-0.032 0.055,-0.043 0.004,-0.002 0.009,-0.008 0.014,-0.01 0.013,-0.007 0.024,-0.009 0.037,-0.013 0.009,-0.002 0.019,-0.007 0.027,-0.008 0.003,0 0.006,0 0.009,0 0.071,-0.005 0.121,0.036 0.121,0.036 0.022,-0.015 0.057,-0.022 0.095,-0.03 0.068,-0.014 0.149,-0.031 0.208,-0.1 0.03,-0.036 0.055,-0.083 0.068,-0.151 l 0,0 c 0.011,-0.008 0.027,-0.018 0.042,-0.026 0.072,-0.042 0.173,-0.085 0.225,-0.101 0.012,-0.003 0.026,-0.009 0.031,-0.009 0.005,0.011 0.077,0.039 0.173,0.071 0.063,0.021 0.137,0.043 0.216,0.065 0.027,0.018 0.045,-0.309 0.082,-0.291 v 0 c 0.019,0.001 0.046,0.344 0.064,0.344 0.053,0.013 0.097,0.023 0.142,0.035 0.084,0.021 0.154,0.038 0.166,0.038 0.145,-0.227 0.371,-0.354 0.725,-0.472 0.481,-0.114 0.708,0.044 0.813,0.247 0.105,0.202 0.092,0.447 0.092,0.515 0,0.057 -0.25,0.167 -0.547,0.286 -0.087,0.035 -0.178,0.07 -0.268,0.105 -0.143,0.009 -0.282,0.027 -0.423,0.04 -0.146,0.014 -0.295,0.023 -0.438,0.042 -0.01,-0.008 -0.014,-0.013 -0.022,-0.02 -0.084,-0.069 -0.141,-0.119 -0.141,-0.135 0,-0.018 0,-0.027 0,-0.032 0,-0.005 0,-0.005 0,-0.005 -0.091,0 -0.498,0 -0.58,-0.054 -0.022,0.036 -0.076,0.101 -0.139,0.172 -0.065,0.074 -0.141,0.154 -0.205,0.219 -0.362,0.054 -0.724,0.117 -1.077,0.19 0.005,-0.003 0.011,-0.003 0.015,-0.007 0.02,-0.014 0.036,-0.029 0.065,-0.029 0,-10e-4 0,-0.002 0,-0.003 0,-0.054 0,-0.116 0,-0.133 -0.116,-0.073 -0.324,-0.282 -0.143,-0.49 z M 54.326,59.999 c 0,0 0,45.651 0,55.79 l -0.969,-0.018 C 53.339,97.616 52.895,78.244 52.895,60.125 c 0,-6.563 -0.154,-13.135 0.027,-19.681 0.018,-0.645 0.072,-1.271 0.164,-1.897 0.008,-0.099 0.026,-0.19 0.044,-0.29 0.034,-0.221 0.087,-0.436 0.13,-0.655 0.038,-0.195 0.071,-0.393 0.116,-0.587 0.066,-0.285 0.147,-0.565 0.227,-0.847 0.049,-0.172 0.092,-0.347 0.146,-0.518 0.096,-0.303 0.206,-0.601 0.316,-0.898 0.053,-0.144 0.101,-0.289 0.158,-0.431 0.129,-0.326 0.274,-0.646 0.421,-0.965 0.05,-0.109 0.095,-0.22 0.147,-0.328 0.17,-0.354 0.354,-0.7 0.543,-1.044 0.039,-0.07 0.074,-0.143 0.114,-0.213 0.216,-0.382 0.445,-0.758 0.684,-1.128 0.019,-0.029 0.036,-0.06 0.055,-0.088 2.291,-3.524 5.562,-6.49 9.069,-8.624 0.516,-0.314 1.036,-0.617 1.56,-0.894 0.347,-0.183 0.702,-0.34 1.054,-0.501 0.697,-0.32 1.4,-0.613 2.116,-0.842 0.182,-0.055 0.372,-0.109 0.553,-0.182 0.172,-0.045 0.353,-0.082 0.525,-0.136 2.604,-0.669 5.293,-0.794 7.948,-0.473 1.361,0.166 2.71,0.46 4.038,0.847 0.226,0.066 0.453,0.124 0.677,0.195 0.021,0.007 0.042,0.016 0.063,0.022 4.087,1.321 7.902,3.622 10.965,6.516 0.136,0.136 0.255,0.264 0.381,0.381 -0.002,-0.001 -0.004,-0.002 -0.005,-0.003 -6.231,-4.083 -16.616,-6.332 -24.656,-3.274 -1.61,0.607 -8.25,3.13 -12.651,7.561 -0.047,0.047 -0.096,0.093 -0.143,0.141 -0.074,0.076 -0.145,0.156 -0.218,0.234 -0.114,0.122 -0.231,0.243 -0.342,0.368 -0.037,0.041 -0.071,0.084 -0.107,0.126 -0.143,0.164 -0.286,0.328 -0.422,0.496 -0.084,0.104 -0.163,0.212 -0.245,0.319 -0.083,0.108 -0.169,0.214 -0.249,0.325 -0.145,0.2 -0.283,0.403 -0.417,0.609 -0.012,0.02 -0.026,0.038 -0.039,0.057 -0.729,1.131 -1.284,2.355 -1.587,3.671 -0.017,0.073 -0.026,0.136 -0.042,0.207 -0.035,0.157 -0.065,0.309 -0.094,0.456 -0.013,0.07 -0.033,0.15 -0.044,0.218 -0.01,0.099 -0.027,0.181 -0.037,0.272 -0.154,1.089 -0.082,1.906 0.263,2.459 0.09,-0.853 0.417,-1.97 0.996,-3.222 0.355,-0.773 0.806,-1.598 1.357,-2.442 3.859,-5.909 12.652,-12.831 27.969,-10.448 l 0.751,1.888 c 0.109,0.252 0.224,0.493 0.336,0.739 0.068,0.146 0.133,0.294 0.201,0.439 0.108,0.232 0.217,0.47 0.321,0.704 0,0.002 0.001,0.004 0.003,0.006 -0.318,-0.208 -4.837,-2.232 -10.769,-1.434 -6.312,0.854 -16.528,4.466 -19.408,10.721 -0.09,0.209 -0.181,0.399 -0.253,0.608 -0.173,0.454 -0.29,0.908 -0.344,1.343 0.091,0 0.171,-0.055 0.308,-0.055 -2.129,3.758 3.704,8.642 9.256,8.315 -3.622,1.099 -6.05,4.865 -6.919,6.808 0.648,0.837 1.65,1.82 3.104,2.527 3.117,1.515 8.318,1.754 16.613,-3.471 0,-0.037 0,-0.072 0,-0.091 0,-0.154 0.008,-0.327 0.018,-0.535 0.063,-1.68 0.326,-5.428 0.616,-9.396 0.344,-4.901 0.706,-9.985 0.706,-11.365 l -0.008,-0.454 0.215,0.027 0.22,0.027 c 0.036,0 0.088,0.005 0.133,0.009 0.044,0.005 0.08,0.009 0.13,0.009 0.479,0.035 1.373,0.1 2.009,0.556 0.357,0.256 0.636,0.633 0.708,1.205 l 0.009,0.037 -0.009,0.054 c -0.019,0.154 -1.159,9.858 -2.065,17.402 -0.026,0.245 -0.054,0.472 -0.08,0.718 0,0 0,-10e-4 0.001,-10e-4 1.467,-1.054 2.825,-1.948 4.101,-2.722 6.514,-3.955 10.617,-4.463 13.193,-3.523 0,0 0.002,0 0.002,0 -0.08,-0.072 -0.151,-0.161 -0.241,-0.241 0,-10e-4 -0.001,-0.002 -0.003,-0.004 0.18,-0.126 0.37,-0.208 0.542,-0.208 -0.116,-0.164 -0.234,-0.282 -0.316,-0.409 -0.661,-0.817 -1.068,-1.607 -1.259,-2.351 0.01,-0.036 -0.072,-0.699 -0.063,-0.735 0.001,0.001 0.002,0.002 0.002,0.002 2.045,1.605 3.62,2.985 4.779,4.182 0.001,-0.001 0.001,-0.004 0.001,-0.005 0.073,-0.361 0.172,-0.722 0.262,-1.074 -0.199,-0.901 -3.011,-2.789 -4.36,-3.721 -0.184,-0.127 -0.341,-0.236 -0.461,-0.323 -0.001,-10e-4 -0.004,-0.003 -0.006,-0.005 0.658,-0.077 1.586,0.361 2.472,0.918 1.157,0.728 2.238,1.657 2.548,1.922 0.044,0.037 0.077,0.065 0.088,0.074 0.114,-0.15 0.203,-0.317 0.282,-0.476 0.002,-0.005 0.006,-0.01 0.008,-0.015 0.055,1.108 0.082,2.233 0.082,3.377 0,2.033 0,4.057 0,6.091 0.009,0.208 0.009,0.326 0.009,0.326 0,0 0.969,26.625 0.969,45.516 0,7.759 -0.163,14.22 -0.624,16.999 0,0.002 -0.001,0.003 -0.001,0.003 l -3.631,2.56 c -0.024,0.033 -0.087,0.084 -0.171,0.145 -0.337,0.24 -1.101,0.675 -1.962,1.139 -0.898,0.484 -1.897,1 -2.613,1.359 -0.072,0.037 -0.125,0.062 -0.19,0.094 -0.105,0.051 -0.219,0.106 -0.308,0.151 -0.035,0.017 -0.081,0.035 -0.118,0.054 -0.452,0.218 -0.923,0.426 -1.403,0.627 -0.489,0.208 -0.997,0.399 -1.522,0.572 -0.322,0.118 -0.663,0.214 -0.999,0.316 -0.202,0.062 -0.398,0.133 -0.603,0.19 -0.281,0.073 -0.562,0.154 -0.843,0.228 -0.593,0.146 -1.206,0.277 -1.829,0.398 -0.271,0.053 -0.54,0.108 -0.815,0.155 -0.078,0.015 -0.161,0.024 -0.24,0.038 -0.829,0.14 -1.678,0.259 -2.547,0.351 -0.01,0.001 -0.019,0.003 -0.027,0.004 -0.958,0.1 -1.938,0.171 -2.937,0.207 -0.263,0 -0.525,0.018 -0.788,0.018 -0.112,0 -0.225,0 -0.337,0 -0.114,0 -0.229,0 -0.342,0 -0.244,0 -0.486,0 -0.722,-0.018 -10e-4,0 -0.002,0 -0.002,0 -0.125,0 -0.249,0 -0.373,0 -0.139,0 -0.277,0 -0.416,0 -0.525,-0.019 -1.042,-0.055 -1.558,-0.091 -0.507,-0.036 -1.014,-0.082 -1.503,-0.137 -0.489,-0.055 -0.978,-0.127 -1.459,-0.191 -1.901,-0.281 -3.667,-0.717 -5.261,-1.242 -0.246,-0.082 -0.475,-0.174 -0.708,-0.263 -0.155,-0.059 -0.317,-0.112 -0.469,-0.173 -1.042,-0.418 -2.001,-0.872 -2.871,-1.381 -0.086,-0.049 -0.163,-0.099 -0.245,-0.147 -0.18,-0.109 -0.36,-0.218 -0.534,-0.324 -0.055,-0.055 -0.109,-0.082 -0.173,-0.118 -0.452,-0.306 -0.865,-0.633 -1.256,-0.972 -0.063,-0.055 -0.131,-0.107 -0.193,-0.162 h -0.001 -0.008 c -0.191,-0.171 -0.363,-0.343 -0.531,-0.519 -0.038,-0.04 -0.084,-0.077 -0.121,-0.117 -0.009,-0.01 -0.027,-0.027 -0.045,-0.046 -10e-4,-0.001 -0.004,-0.004 -0.006,-0.005 -0.138,-0.128 -0.485,-0.414 -0.894,-0.779 -0.002,-0.002 -0.003,-0.003 -0.006,-0.005 0,0 0,0 -0.009,0 -0.068,-0.059 -0.147,-0.125 -0.219,-0.186 -0.186,-0.156 -0.372,-0.314 -0.568,-0.478 -0.183,-0.159 -0.361,-0.313 -0.533,-0.459 -0.277,-0.236 -0.53,-0.449 -0.714,-0.601 -0.001,-10e-4 -0.002,-0.002 -0.003,-0.003 l 0.299,-60.266 c -0.496,1.33 -1.302,2.836 -2.579,4.144 z m 4.628,72.447 c -2.799,-2.514 -1.993,-13.162 -1.821,-13.389 0.008,-0.009 0.033,0.01 0.067,0.041 0.276,0.253 1.368,1.728 2.277,2.705 0.34,0.365 0.654,0.66 0.89,0.794 0.413,0.236 1.897,1.392 5.243,2.383 0.028,0.009 0.053,0.018 0.082,0.025 0.023,0.007 0.048,0.014 0.071,0.021 4.384,1.271 11.88,2.244 24.194,0.598 0.009,-10e-4 0.016,-0.002 0.024,-0.004 -14.378,4.253 -28.293,-0.159 -29.029,-0.376 -0.004,-0.001 -0.013,-0.004 -0.016,-0.005 0.349,0.242 5.067,3.239 18.245,2.946 3.58,-0.079 7.78,-0.398 12.692,-1.086 -0.01,0.004 -0.02,0.006 -0.03,0.009 -12.526,3.782 -26.183,1.798 -30.246,0.626 0.021,0.008 0.042,0.016 0.063,0.022 2.769,0.963 5.284,1.636 8.581,1.998 0.007,0.001 0.014,0.001 0.021,0.003 2.441,0.267 5.319,0.363 9.039,0.283 3.696,-0.079 8.225,-0.333 14.01,-0.77 0.008,-0.002 0.014,-0.002 0.021,-0.002 -14.586,3.92 -24.91,1.549 -30.905,0.635 -0.016,-0.002 -0.035,-0.006 -0.052,-0.009 5.406,1.381 8.187,3.458 32.409,1.31 0.008,0 0.017,-0.001 0.023,-0.001 -8.479,2.28 -16.39,2.358 -22.366,2.028 -5.46,-0.303 -9.307,-0.944 -10.483,-0.559 -0.383,0.125 -0.747,0.174 -1.081,0.178 -1.021,0.013 -1.765,-0.404 -1.923,-0.404 z m 12.959,15.069 c -0.298,0.054 -0.624,0.117 -0.95,0.172 0.408,-0.526 0.671,-0.799 0.643,-1.189 -0.072,-0.871 -0.118,-2.405 -0.136,-4.148 -0.024,-2.18 -0.027,-4.694 -0.021,-6.743 h 0.981 2.083 0.058 c -0.332,2.69 -0.709,4.991 -1.037,6.979 l -1.866,-0.1 c 0.073,1.987 0.137,3.685 0.245,5.029 z m 4.327,-11.91 h 0.981 0.634 0.209 c 0.111,2.232 0.244,5.005 0.325,7.278 l -2.128,-0.117 c -0.032,-2.269 -0.029,-4.982 -0.021,-7.161 z m 2.34,11.319 c -0.445,-0.009 -0.87,-0.009 -1.242,-0.009 0.072,-0.4 0.108,-0.799 0.182,-1.254 l 0.923,0.474 c -0.009,0.099 -0.009,0.227 -0.009,0.308 -0.009,0.181 0.045,0.336 0.146,0.481 z m -0.082,1.335 -1.359,-0.046 c 0.028,-0.173 0.055,-0.336 0.091,-0.526 0.471,0.146 0.915,0.336 1.278,0.436 0.035,0.054 0.082,0.091 0.116,0.137 h -0.126 z m 5.615,-1.081 c -0.444,-0.153 -1.023,-0.153 -1.794,0 -0.145,-1.325 -0.335,-2.687 -0.516,-4.085 l -0.562,-0.036 c -0.444,-2.087 -0.993,-4.495 -1.491,-7.403 l 0.83,-0.048 h 2.862 0.21 c 0.188,3.7 0.429,8.885 0.369,10.837 -0.008,0.182 0.054,0.337 0.146,0.481 -0.018,0.082 -0.045,0.173 -0.054,0.254 z"
   id="path18926" />
<path
   d="m 56.901,55.864 -0.299,60.264 c 0.185,0.151 0.438,0.364 0.714,0.601 0.172,0.146 0.351,0.298 0.535,0.455 0.196,0.162 0.381,0.323 0.566,0.481 0.072,0.061 0.151,0.127 0.219,0.186 0.009,0 0.009,0 0.009,0 0.002,0.002 0.004,0.003 0.006,0.005 0.089,0.009 0.17,0.017 0.25,0.027 0.198,0.249 0.412,0.51 0.644,0.752 10e-4,10e-4 0.004,0.004 0.006,0.005 0.018,0.019 0.036,0.036 0.045,0.046 0.037,0.04 0.083,0.077 0.121,0.117 0.169,0.172 0.341,0.342 0.534,0.514 l 0.004,0.005 h 10e-4 c 0.062,0.055 0.13,0.107 0.193,0.162 0.392,0.335 0.806,0.662 1.259,0.968 0.063,0.036 0.117,0.072 0.172,0.118 0.172,0.11 0.352,0.219 0.531,0.328 0.082,0.049 0.159,0.099 0.245,0.147 0.869,0.509 1.829,0.963 2.871,1.381 0.152,0.061 0.314,0.114 0.469,0.173 0.235,0.087 0.465,0.176 0.712,0.258 1.593,0.526 3.359,0.953 5.261,1.244 0.481,0.072 0.969,0.136 1.458,0.19 0.489,0.054 0.996,0.1 1.503,0.136 0.516,0.036 1.032,0.063 1.558,0.081 0.009,-0.117 0.018,-0.245 0.027,-0.39 0.082,-1.435 0.235,-4.049 0.1,-6.527 -0.39,-0.063 -1.115,-0.199 -2.038,-0.407 -3.116,-0.718 -8.541,-2.361 -11.638,-5.574 -3.487,-3.613 -4.447,-7.861 -2.717,-11.955 2.255,-5.319 8.858,-9.495 15.034,-9.495 2.826,0 5.362,0.871 7.345,2.523 l 0.263,0.219 -0.181,0.29 c -1.105,1.77 -2.871,3.323 -5.379,4.73 4.093,1.579 8.467,5.02 9.12,8.768 0.397,2.315 -0.607,4.421 -2.997,6.273 -1.621,1.253 -3.914,1.67 -4.801,1.797 l 0.036,1.145 c 0.046,0.009 0.109,0.009 0.172,0.009 1.558,0 5.107,-0.563 6.06,-0.817 5.307,-1.407 8.622,-4.929 9.337,-9.903 0.979,-6.836 -3.016,-14.86 -9.284,-18.673 -1.268,-0.763 -2.87,-1.606 -4.563,-2.505 -6.71,-3.541 -15.062,-7.943 -15.704,-13.925 -0.326,-2.969 1.349,-6.019 4.972,-9.068 1.793,-1.516 4.12,-1.834 5.76,-1.834 0.852,0 1.548,0.082 1.983,0.146 0.063,-1.036 0.217,-3.686 0.227,-5.193 -8.297,5.226 -13.499,4.985 -16.615,3.466 -1.454,-0.707 -2.456,-1.689 -3.104,-2.527 0.869,-1.943 3.297,-5.709 6.919,-6.808 -5.552,0.327 -11.385,-4.557 -9.256,-8.315 -0.137,0 -0.217,0.055 -0.308,0.055 0.055,-0.436 0.171,-0.889 0.344,-1.343 0.072,-0.209 0.163,-0.399 0.253,-0.608 L 55.094,37.89 c -0.58,1.252 -0.906,2.369 -0.996,3.222 -0.344,-0.553 -0.417,-1.37 -0.263,-2.459 0.009,-0.091 0.027,-0.173 0.037,-0.272 0.011,-0.067 0.031,-0.147 0.044,-0.218 0.026,-0.146 0.06,-0.301 0.094,-0.456 0.016,-0.071 0.026,-0.134 0.042,-0.207 0.303,-1.316 0.858,-2.54 1.587,-3.671 0.012,-0.02 0.026,-0.038 0.039,-0.057 0.134,-0.206 0.272,-0.409 0.417,-0.609 0.08,-0.11 0.166,-0.217 0.249,-0.325 0.082,-0.106 0.161,-0.215 0.245,-0.319 0.136,-0.168 0.279,-0.333 0.422,-0.496 0.036,-0.042 0.07,-0.085 0.107,-0.126 0.111,-0.125 0.228,-0.246 0.342,-0.368 0.073,-0.078 0.144,-0.158 0.218,-0.234 0.047,-0.048 0.096,-0.094 0.143,-0.141 4.401,-4.431 11.041,-6.954 12.651,-7.561 8.04,-3.058 18.424,-0.809 24.656,3.274 -0.124,-0.124 -0.239,-0.249 -0.373,-0.373 -3.063,-2.895 -6.881,-5.199 -10.968,-6.521 -0.021,-0.007 -0.042,-0.016 -0.063,-0.022 -0.224,-0.072 -0.451,-0.129 -0.677,-0.195 -1.328,-0.387 -2.677,-0.682 -4.038,-0.847 -2.654,-0.321 -5.342,-0.195 -7.945,0.477 -0.172,0.046 -0.354,0.091 -0.525,0.136 -0.182,0.063 -0.373,0.118 -0.553,0.182 -0.716,0.229 -1.421,0.52 -2.119,0.837 -0.353,0.161 -0.707,0.318 -1.054,0.501 -0.524,0.277 -1.043,0.58 -1.56,0.894 -3.505,2.139 -6.779,5.103 -9.069,8.624 -0.019,0.029 -0.036,0.059 -0.055,0.088 -0.238,0.371 -0.468,0.747 -0.684,1.128 -0.04,0.07 -0.075,0.143 -0.114,0.213 -0.189,0.344 -0.373,0.69 -0.543,1.044 -0.052,0.108 -0.097,0.219 -0.147,0.328 -0.147,0.319 -0.291,0.64 -0.421,0.965 -0.057,0.142 -0.104,0.288 -0.158,0.431 -0.11,0.298 -0.22,0.596 -0.316,0.898 -0.054,0.171 -0.097,0.345 -0.146,0.518 -0.08,0.281 -0.16,0.562 -0.227,0.847 -0.045,0.194 -0.078,0.392 -0.116,0.587 -0.043,0.218 -0.085,0.436 -0.12,0.656 l -0.01,-10e-4 c -0.019,0.1 -0.036,0.19 -0.044,0.29 -0.091,0.627 -0.146,1.253 -0.164,1.897 -0.182,6.545 -0.027,13.118 -0.027,19.681 0,18.119 0.444,37.49 0.462,55.646 l 0.969,0.018 c 0,-10.139 0,-55.79 0,-55.79 1.277,-1.308 2.083,-2.814 2.572,-4.14 l 0.729,-0.565 -0.723,0.565 z"
   id="path18928"
   style="fill:#ffffff" />
<path
   d="m 98.482,39.465 c -0.151,0.092 -0.307,0.164 -0.461,0.237 -0.362,0.172 -0.731,0.311 -1.114,0.384 0.119,0.079 0.256,0.165 0.403,0.251 0.833,0.483 2.073,1.028 3.146,1.013 0.413,-0.007 0.8,-0.096 1.127,-0.305 -0.153,-1.377 -0.389,-2.719 -0.713,-4.034 -0.244,0.472 -0.579,0.925 -1.04,1.351 -0.443,0.465 -0.89,0.825 -1.348,1.103 z"
   id="path18930"
   style="fill:#ffffff" />
<path
   d="m 98.474,36.677 c 0.874,-0.174 1.513,-0.623 1.969,-1.134 -0.761,-2.396 -1.902,-4.675 -3.605,-6.79 -2.397,-0.046 -4.169,0.459 -5.412,1.146 -1.689,0.937 -2.397,2.211 -2.328,2.907 0.046,0.487 0.167,0.893 0.346,1.227 0.535,1.002 1.582,1.365 2.613,1.365 0.906,0 1.911,0.236 2.996,0.654 0.476,0.201 0.897,0.351 1.276,0.464 0.478,0.141 0.883,0.22 1.191,0.23 0.346,0.014 0.663,-0.012 0.954,-0.069 z"
   id="path18932"
   style="fill:#ffffff" />
<path
   d="m 84.615,68.427 c -0.163,1.389 -1.025,3.105 -2.311,4.475 -1.276,1.371 -2.97,2.397 -4.8,2.397 -0.189,0 -0.371,-0.009 -0.561,-0.027 l -0.362,-0.046 0.018,-0.363 c 0.009,-0.109 0.562,-10.349 0.58,-12.772 -0.39,-0.155 -0.888,-0.236 -1.458,-0.236 -2.409,0 -5.678,1.325 -7.272,3.858 -1.268,2.025 -1.259,4.421 0.027,7.144 1.458,3.06 5.054,5.011 8.224,6.736 0.471,0.254 0.924,0.5 1.358,0.744 l 0.697,0.39 c 8.713,4.893 19.281,10.812 18.793,21.667 -0.073,1.681 -0.407,3.478 -1.061,5.401 -1.684,4.993 -6.61,8.834 -11.981,9.351 -0.1,0.009 -0.235,0.019 -0.39,0.037 -1.322,0.108 -4.328,0.345 -5.415,0.426 0.054,0.545 0.153,1.598 0.289,2.851 0.127,1.252 0.299,2.715 0.479,4.058 0.998,-0.037 1.978,-0.104 2.935,-0.202 0.009,-0.001 0.018,-0.003 0.027,-0.004 0.871,-0.09 1.718,-0.211 2.547,-0.351 0.079,-0.014 0.162,-0.023 0.24,-0.038 0.275,-0.047 0.545,-0.103 0.815,-0.155 0.623,-0.125 1.238,-0.257 1.832,-0.402 0.28,-0.073 0.562,-0.146 0.843,-0.228 0.203,-0.058 0.397,-0.126 0.6,-0.187 0.336,-0.103 0.677,-0.198 0.999,-0.316 0.525,-0.173 1.033,-0.364 1.522,-0.572 0.48,-0.201 0.951,-0.409 1.403,-0.627 0.037,-0.019 0.083,-0.037 0.118,-0.054 0.089,-0.045 0.202,-0.101 0.308,-0.151 0.065,-0.033 0.12,-0.061 0.192,-0.099 0.715,-0.358 1.713,-0.872 2.611,-1.354 0.861,-0.464 1.625,-0.898 1.962,-1.139 0.086,-0.063 0.149,-0.114 0.173,-0.148 l 3.63,-2.559 c 0.461,-2.779 0.624,-9.24 0.624,-16.999 0,-18.891 -0.969,-45.516 -0.969,-45.516 0,0 0,-0.118 -0.009,-0.326 0,-2.034 0,-4.058 0,-6.091 0,-1.144 -0.027,-2.269 -0.082,-3.377 -0.002,0.005 -0.006,0.009 -0.008,0.015 -0.079,0.165 -0.166,0.332 -0.279,0.48 -0.012,-0.009 -0.045,-0.039 -0.091,-0.078 -0.31,-0.265 -1.391,-1.194 -2.548,-1.922 -0.884,-0.554 -1.809,-0.988 -2.466,-0.913 0.12,0.086 0.277,0.196 0.461,0.323 1.35,0.925 4.164,2.815 4.362,3.725 -0.091,0.354 -0.189,0.718 -0.262,1.072 0,0 -0.001,-0.001 -0.002,-0.001 0,0.001 0,0.004 -10e-4,0.005 -1.159,-1.197 -2.734,-2.577 -4.779,-4.182 -0.006,0.068 0.073,0.702 0.063,0.737 0.19,0.744 0.598,1.525 1.259,2.342 0.081,0.136 0.199,0.254 0.317,0.417 -0.172,0 -0.361,0.081 -0.543,0.208 0.09,0.081 0.161,0.169 0.241,0.241 0,0 -0.002,0 -0.002,0 0.002,0.001 0.004,0.003 0.005,0.005 -2.575,-0.949 -6.682,-0.437 -13.198,3.518 -1.275,0.774 -2.634,1.668 -4.101,2.722 -0.443,3.693 -0.814,6.75 -0.941,7.721 2.131,1.588 5.671,5.456 5.338,8.369 z"
   id="path18934"
   style="fill:#ffffff" />
<path
   d="m 79.447,18.489 c -0.004,0 -0.007,0.006 -0.01,0.007 -0.01,0.004 -0.019,0.011 -0.027,0.022 0.03,0 0.055,0 0.078,0 -0.016,-0.018 -0.03,-0.03 -0.041,-0.029 z"
   id="path18936"
   style="fill:#ffffff" />
<path
   d="m 82.06,69.127 c 0.345,-2.144 -0.815,-4.648 -2.798,-6.192 -0.082,1.498 -0.154,3.005 -0.228,4.493 -0.071,1.699 -0.153,3.441 -0.262,5.183 1.857,-0.598 3.016,-1.823 3.288,-3.484 z"
   id="path18938"
   style="fill:#ffffff" />
<path
   d="m 77.921,73.646 0.516,-0.127 c 2.482,-0.608 4.04,-2.124 4.393,-4.267 0.426,-2.641 -1.141,-5.737 -3.722,-7.371 l -0.562,-0.363 -0.064,1.235 c -0.072,1.552 -0.153,3.095 -0.226,4.638 -0.082,1.87 -0.172,3.803 -0.299,5.719 l -0.036,0.536 z m 1.114,-6.218 c 0.073,-1.488 0.146,-2.995 0.228,-4.493 1.982,1.543 3.143,4.048 2.798,6.192 -0.272,1.661 -1.431,2.886 -3.288,3.484 0.108,-1.742 0.19,-3.484 0.262,-5.183 z"
   id="path18940"
   style="fill:#ed1c24" />
<path
   d="m 76.653,15.914 -0.001,10e-4 c 0,0.001 0,0.002 -0.001,0.003 0,0 -0.176,0.101 -0.266,0.216 -0.029,0.038 -0.049,0.078 -0.049,0.116 0,0 0.371,0.135 0.461,0.227 0.025,0.012 0.045,0.023 0.061,0.041 0,10e-4 0.002,10e-4 0.002,10e-4 0.017,0.02 0.027,0.046 0.027,0.094 0,0.146 -0.036,0.454 -0.091,0.854 0.018,0.081 0.063,0.152 0.107,0.223 0.016,0.019 0.039,0.033 0.057,0.051 0.165,0.149 0.441,0.235 0.85,0.235 0,0 0.435,-0.055 1.258,-0.173 0.099,-0.023 0.192,-0.054 0.284,-0.083 0.119,-0.039 0.235,-0.075 0.348,-0.085 0,0.002 0,0.003 0,0.005 10e-4,0 0.002,0 0.003,0 0,0.054 0,0.108 0,0.163 0.72,0.062 0.788,0.276 1.228,0.375 0.146,0.032 0.334,0.052 0.6,0.047 0.295,0 0.379,-0.241 0.433,-0.359 -0.409,-0.032 -0.726,-0.189 -1.005,-0.372 -0.277,-0.179 -0.521,-0.378 -0.774,-0.515 -0.107,-0.057 -0.219,-0.106 -0.335,-0.13 -0.161,-0.03 -0.295,-0.088 -0.411,-0.166 -0.094,-0.063 -0.164,-0.156 -0.23,-0.253 -0.025,-0.036 -0.062,-0.058 -0.084,-0.099 0,-0.001 -0.002,-0.002 -0.002,-0.003 0,-10e-4 0,-10e-4 0,-10e-4 -0.013,-0.032 -0.036,-0.061 -0.053,-0.091 -0.058,-0.107 -0.138,-0.207 -0.298,-0.277 10e-4,0 0.002,0 0.003,0 -0.002,-10e-4 -0.003,-0.003 -0.005,-0.004 0.106,-0.009 0.213,-0.018 0.291,-0.025 0.074,-0.008 0.122,-0.014 0.125,-0.015 0.087,-0.624 -0.652,-0.987 -0.588,-1.984 0.035,-0.505 0.164,-0.917 0.17,-0.937 -0.026,0.013 -1.773,1 -2.115,2.92 z"
   id="path18942"
   style="fill:#ffffff" />
<path
   d="m 76.363,14.551 c 0.089,-0.153 0.143,-0.341 0.197,-0.566 0.091,-0.509 0.344,-1.416 1.051,-1.87 1.177,-1.098 0.055,-1.098 -0.118,-1.098 0.037,-0.127 0.118,-0.336 0.136,-0.381 -0.273,0.138 -0.507,0.356 -0.701,0.629 -0.58,0.819 -0.788,2.136 -0.565,3.286 z"
   id="path18944"
   style="fill:#ffffff" />
<path
   d="m 73.139,108.923 c -0.027,1.516 1.06,3.187 3.206,3.667 -0.037,-1.599 -0.136,-4.911 -0.19,-6.718 -2.174,0.354 -2.988,1.834 -3.016,3.051 z"
   id="path18946"
   style="fill:#ffffff" />
<path
   d="m 78.555,112.834 c 3.314,-0.244 5.117,-1.733 5.1,-4.238 -0.036,-4.112 -4.91,-9.523 -10.026,-9.65 l -0.38,-0.008 v -0.382 c 0,-0.926 1.358,-1.752 3.568,-3.005 1.168,-0.663 2.463,-1.407 3.152,-2.061 -1.522,-0.654 -3.206,-0.98 -5.017,-0.98 -5.425,0 -10.669,2.969 -12.462,7.053 -1.15,2.624 -1.06,5.165 0.263,7.544 2.427,4.403 8.794,7.579 13.775,8.443 -0.027,-0.31 -0.036,-0.618 -0.045,-0.827 -0.959,-0.326 -4.112,-1.552 -5.053,-3.713 -0.625,-1.416 -0.508,-2.842 0.326,-4.121 1.113,-1.697 3.415,-2.887 5.597,-2.887 0.444,0 0.462,0 0.861,4.549 0.151,1.696 0.287,3.467 0.341,4.283 z"
   id="path18948"
   style="fill:#ffffff" />
<path
   d="m 76.907,105 -0.408,0.037 c -2.997,0.272 -4.103,2.251 -4.139,3.867 -0.046,1.961 1.431,4.148 4.338,4.539 l 0.443,0.063 -0.009,-0.463 c -0.027,-1.389 -0.154,-5.79 -0.208,-7.624 L 76.907,105 z m -3.768,3.923 c 0.027,-1.217 0.842,-2.697 3.016,-3.051 0.055,1.807 0.154,5.119 0.19,6.718 -2.146,-0.481 -3.233,-2.152 -3.206,-3.667 z"
   id="path18950"
   style="fill:#ed1c24" />
<path
   d="m 72.55,18.8 c 0,0.018 0,0.082 0,0.136 -10e-4,0 -10e-4,0.001 -0.002,0.001 0,10e-4 0,0.002 0,0.003 -0.029,0 -0.046,0.015 -0.065,0.029 0.35,-0.063 0.707,-0.125 1.065,-0.188 0.063,-0.063 0.137,-0.143 0.202,-0.214 0.063,-0.071 0.117,-0.137 0.139,-0.172 0.082,0.054 0.489,0.054 0.58,0.054 0,0 0,0 0,0.005 h 0.003 c 0,0 0,0 0,0.027 0,0.016 0.056,0.066 0.138,0.14 0.009,0.007 0.013,0.011 0.022,0.02 0.143,-0.019 0.291,-0.028 0.438,-0.042 0.143,-0.014 0.283,-0.031 0.426,-0.044 0.089,-0.033 0.179,-0.067 0.265,-0.101 0.297,-0.119 0.547,-0.229 0.547,-0.286 0,-0.068 0.014,-0.313 -0.092,-0.515 -0.107,-0.201 -0.333,-0.355 -0.811,-0.243 -0.354,0.109 -0.58,0.245 -0.725,0.472 -0.012,0 -0.083,-0.019 -0.168,-0.042 -0.045,-0.011 -0.089,-0.022 -0.142,-0.035 -0.018,0 -0.045,-0.343 -0.064,-0.344 -0.035,0.001 -0.052,0.303 -0.078,0.293 -0.081,-0.021 -0.155,-0.046 -0.219,-0.069 -0.097,-0.032 -0.168,-0.06 -0.173,-0.071 -0.004,0 -0.019,0.005 -0.031,0.009 -0.054,0.021 -0.154,0.064 -0.225,0.101 -0.015,0.009 -0.032,0.018 -0.042,0.026 -0.014,0.068 -0.038,0.117 -0.069,0.152 -0.059,0.069 -0.141,0.086 -0.208,0.1 -0.037,0.009 -0.07,0.018 -0.092,0.035 0,0 -0.051,-0.045 -0.124,-0.041 -0.003,0 -0.006,0 -0.009,0 -0.009,0.001 -0.019,0.006 -0.027,0.008 -0.012,0.004 -0.024,0.005 -0.037,0.013 -0.004,0.002 -0.009,0.008 -0.014,0.01 -0.018,0.011 -0.036,0.023 -0.055,0.043 -0.01,0.01 -0.02,0.026 -0.03,0.039 -0.014,0.017 -0.027,0.032 -0.041,0.054 -0.024,0.04 -0.048,0.087 -0.071,0.146 l 0,0 c -10e-4,0.002 -0.002,0.003 -0.002,0.005 -0.027,-0.055 -0.171,-0.208 -0.352,0 -0.178,0.216 0.027,0.423 0.143,0.486 z"
   id="path18952"
   style="fill:#ffffff" />
<path
   d="m 78.202,113.633 c 3.984,-0.164 6.258,-2.005 6.231,-5.047 -0.036,-4.329 -4.782,-9.895 -10.207,-10.384 0.516,-0.572 1.956,-1.389 2.979,-1.97 1.521,-0.872 3.106,-1.771 3.722,-2.652 L 81.19,93.199 80.774,93 c -1.739,-0.844 -3.704,-1.28 -5.823,-1.28 -5.724,0 -11.258,3.168 -13.178,7.535 -1.25,2.851 -1.15,5.628 0.29,8.233 2.635,4.773 9.627,8.16 14.853,8.923 l 0.525,0.072 -0.083,-0.525 c -0.099,-0.654 -0.099,-1.517 -0.099,-1.517 v -0.3 l -0.281,-0.082 c -0.036,-0.009 -3.894,-1.188 -4.836,-3.357 -0.644,-1.48 -0.208,-2.651 0.263,-3.388 0.915,-1.389 2.824,-2.424 4.636,-2.522 0.218,1.415 0.752,7.853 0.752,8.451 v 0.407 l 0.409,-0.017 z m -0.851,-9.631 c -2.182,0 -4.483,1.189 -5.597,2.887 -0.834,1.279 -0.951,2.705 -0.326,4.121 0.941,2.161 4.094,3.387 5.053,3.713 0.009,0.209 0.018,0.518 0.045,0.827 -4.981,-0.864 -11.348,-4.04 -13.775,-8.443 -1.322,-2.379 -1.413,-4.92 -0.263,-7.544 1.793,-4.084 7.037,-7.053 12.462,-7.053 1.811,0 3.495,0.327 5.017,0.98 -0.688,0.653 -1.984,1.397 -3.152,2.061 -2.21,1.253 -3.568,2.079 -3.568,3.005 v 0.382 l 0.38,0.008 c 5.117,0.127 9.99,5.538 10.026,9.65 0.018,2.505 -1.785,3.994 -5.1,4.238 -0.054,-0.816 -0.19,-2.587 -0.344,-4.283 -0.396,-4.549 -0.415,-4.549 -0.858,-4.549 z"
   id="path18954"
   style="fill:#ed1c24" />
<path
   d="m 77.885,117.282 -0.037,-0.39 0.398,-0.027 c 0.018,0 0.607,-0.045 1.43,-0.119 1.567,-0.116 3.968,-0.298 4.756,-0.38 5.071,-0.49 9.728,-4.112 11.312,-8.814 C 100.399,93.763 88.698,87.2 78.374,81.418 l -0.698,-0.4 c -0.435,-0.235 -0.888,-0.48 -1.35,-0.734 -3.116,-1.689 -6.991,-3.794 -8.549,-7.09 -1.766,-3.703 -0.969,-6.345 0.009,-7.897 1.747,-2.769 5.307,-4.221 7.933,-4.221 0.807,0 1.514,0.146 2.029,0.417 l 0.208,0.109 v 0.228 c 0.027,1.715 -0.443,10.684 -0.552,12.69 3.242,0.082 6.14,-3.722 6.43,-6.182 0.299,-2.524 -3.17,-6.345 -5.19,-7.779 l -0.199,-0.137 0.036,-0.236 c 0.218,-1.606 2.962,-24.746 3.107,-26.007 -0.136,-0.79 -0.969,-0.944 -1.856,-1.018 -0.045,1.834 -0.38,6.491 -0.698,11.012 -0.316,4.438 -0.616,8.623 -0.634,9.866 0,1.888 -0.253,5.747 -0.253,5.784 l -0.037,0.453 -0.443,-0.1 c -0.009,0 -0.961,-0.208 -2.255,-0.208 -1.512,0 -3.649,0.291 -5.262,1.652 -3.405,2.869 -4.99,5.691 -4.7,8.387 0.607,5.574 8.749,9.868 15.296,13.317 1.703,0.899 3.314,1.751 4.61,2.533 6.521,3.958 10.669,12.317 9.646,19.443 -0.761,5.311 -4.274,9.06 -9.908,10.558 -0.86,0.228 -3.622,0.672 -5.425,0.799 -0.316,0.027 -0.599,0.036 -0.834,0.036 -0.262,0 -0.47,-0.019 -0.624,-0.046 l -0.308,-0.054 -0.073,-2.542 0.362,-0.026 c 0.028,-0.01 2.935,-0.272 4.764,-1.68 2.138,-1.661 3.052,-3.522 2.698,-5.52 -0.616,-3.577 -5.279,-7.107 -9.427,-8.46 l -0.896,-0.281 0.833,-0.436 c 2.653,-1.371 4.511,-2.878 5.669,-4.585 -1.803,-1.389 -4.066,-2.114 -6.575,-2.114 -5.887,0 -12.172,3.958 -14.31,9.014 -1.141,2.678 -1.611,6.78 2.555,11.102 4.229,4.395 13.449,5.792 13.548,5.801 l 0.307,0.045 0.019,0.317 c 0.172,2.614 0.009,5.429 -0.081,6.937 -0.01,0.134 -0.018,0.25 -0.019,0.358 0.235,0.018 0.478,0.018 0.722,0.018 0.114,0 0.228,0 0.342,0 0.113,-0.002 0.226,-0.005 0.339,-0.005 -0.433,-3.241 -0.777,-7.026 -0.795,-7.254 z m 0.372,-49.89 c 0.073,-1.543 0.153,-3.086 0.226,-4.638 l 0.064,-1.235 0.562,0.363 c 2.581,1.634 4.147,4.729 3.722,7.371 -0.353,2.143 -1.91,3.659 -4.393,4.267 l -0.516,0.127 0.036,-0.536 c 0.126,-1.916 0.217,-3.849 0.299,-5.719 z m -1.215,37.4 c -1.812,0.099 -3.722,1.134 -4.636,2.522 -0.471,0.736 -0.906,1.907 -0.263,3.388 0.942,2.169 4.8,3.349 4.836,3.357 l 0.281,0.082 v 0.3 c 0,0 0,0.862 0.099,1.517 l 0.083,0.525 -0.525,-0.072 c -5.226,-0.763 -12.218,-4.149 -14.853,-8.923 -1.44,-2.605 -1.54,-5.383 -0.29,-8.233 1.92,-4.367 7.454,-7.535 13.178,-7.535 2.119,0 4.083,0.436 5.823,1.28 l 0.417,0.2 -0.263,0.381 c -0.616,0.881 -2.201,1.78 -3.722,2.652 -1.023,0.581 -2.463,1.397 -2.979,1.97 5.424,0.489 10.17,6.055 10.207,10.384 0.026,3.042 -2.247,4.883 -6.231,5.047 l -0.407,0.018 v -0.407 c -0.003,-0.6 -0.537,-7.038 -0.755,-8.453 z m 0.1,8.714 -0.443,-0.063 c -2.907,-0.391 -4.384,-2.578 -4.338,-4.539 0.036,-1.616 1.142,-3.595 4.139,-3.867 l 0.407,-0.037 0.018,0.419 c 0.055,1.834 0.181,6.235 0.208,7.624 l 0.009,0.463 z"
   id="path18956"
   style="fill:#ffde17" />
<path
   d="m 78.963,32.743 c 0,1.38 -0.363,6.463 -0.707,11.374 -0.291,3.958 -0.553,7.716 -0.616,9.396 -0.009,0.2 -0.018,0.381 -0.018,0.526 0,0.027 0,0.064 0,0.101 -0.009,1.507 -0.163,4.157 -0.227,5.193 -0.435,-0.064 -1.132,-0.146 -1.983,-0.146 -1.64,0 -3.967,0.318 -5.76,1.834 -3.623,3.05 -5.298,6.1 -4.972,9.068 0.642,5.982 8.993,10.385 15.704,13.925 1.693,0.898 3.296,1.742 4.563,2.505 6.269,3.813 10.263,11.837 9.284,18.673 -0.715,4.975 -4.03,8.496 -9.337,9.903 -0.952,0.255 -4.502,0.817 -6.06,0.817 -0.063,0 -0.126,0 -0.172,-0.009 l -0.036,-1.145 c 0.887,-0.127 3.18,-0.544 4.801,-1.797 2.39,-1.853 3.395,-3.958 2.997,-6.273 -0.652,-3.748 -5.026,-7.188 -9.12,-8.768 2.508,-1.407 4.274,-2.96 5.379,-4.73 l 0.181,-0.29 -0.263,-0.219 c -1.982,-1.652 -4.519,-2.523 -7.345,-2.523 -6.176,0 -12.778,4.176 -15.034,9.495 -1.73,4.094 -0.77,8.342 2.717,11.955 3.097,3.213 8.522,4.856 11.638,5.574 0.923,0.208 1.647,0.345 2.038,0.407 0.135,2.479 -0.019,5.093 -0.1,6.527 -0.009,0.145 -0.018,0.272 -0.027,0.39 v 0.01 c 0.137,0.005 0.275,0.004 0.413,0.005 0.124,0 0.248,0 0.373,0 0,0 0.001,0 0.002,0 0,-0.108 0.009,-0.225 0.019,-0.358 0.089,-1.508 0.253,-4.322 0.081,-6.937 l -0.019,-0.317 -0.307,-0.045 c -0.1,-0.009 -9.319,-1.406 -13.548,-5.801 -4.166,-4.321 -3.695,-8.424 -2.555,-11.102 2.138,-5.056 8.423,-9.014 14.31,-9.014 2.509,0 4.772,0.725 6.575,2.114 -1.158,1.708 -3.016,3.214 -5.669,4.585 l -0.833,0.436 0.896,0.281 c 4.148,1.353 8.811,4.883 9.427,8.46 0.354,1.997 -0.561,3.858 -2.698,5.52 -1.829,1.407 -4.736,1.67 -4.764,1.68 l -0.362,0.026 0.073,2.542 0.308,0.054 c 0.154,0.027 0.362,0.046 0.624,0.046 0.235,0 0.518,-0.009 0.834,-0.036 1.803,-0.127 4.564,-0.571 5.425,-0.799 5.634,-1.498 9.147,-5.247 9.908,-10.558 1.023,-7.126 -3.124,-15.486 -9.646,-19.443 -1.296,-0.782 -2.907,-1.634 -4.61,-2.533 -6.548,-3.449 -14.689,-7.743 -15.296,-13.317 -0.29,-2.696 1.295,-5.519 4.7,-8.387 1.613,-1.362 3.75,-1.652 5.262,-1.652 1.294,0 2.246,0.208 2.255,0.208 l 0.443,0.1 0.037,-0.453 c 0,-0.037 0.253,-3.896 0.253,-5.784 0.018,-1.243 0.317,-5.428 0.634,-9.866 0.318,-4.521 0.653,-9.178 0.698,-11.012 0.888,0.073 1.721,0.228 1.856,1.018 -0.145,1.261 -2.889,24.4 -3.107,26.007 l -0.036,0.236 0.199,0.137 c 2.02,1.434 5.489,5.255 5.19,7.779 -0.29,2.459 -3.188,6.263 -6.43,6.182 0.109,-2.006 0.579,-10.975 0.552,-12.69 V 61.6 l -0.208,-0.109 c -0.516,-0.272 -1.223,-0.417 -2.029,-0.417 -2.626,0 -6.186,1.453 -7.933,4.221 -0.979,1.552 -1.775,4.194 -0.009,7.897 1.558,3.296 5.434,5.401 8.549,7.09 0.462,0.254 0.915,0.499 1.35,0.734 l 0.698,0.4 c 10.324,5.782 22.025,12.345 17.37,26.134 -1.584,4.702 -6.24,8.324 -11.312,8.814 -0.788,0.082 -3.188,0.264 -4.756,0.38 -0.823,0.074 -1.412,0.119 -1.43,0.119 l -0.398,0.027 0.037,0.39 c 0.018,0.228 0.362,4.013 0.796,7.253 0.263,0 0.526,-0.009 0.788,-0.018 -0.181,-1.343 -0.353,-2.806 -0.479,-4.058 -0.136,-1.253 -0.235,-2.306 -0.289,-2.851 1.087,-0.081 4.093,-0.317 5.415,-0.426 0.154,-0.019 0.29,-0.028 0.39,-0.037 5.371,-0.517 10.298,-4.357 11.981,-9.351 0.653,-1.924 0.987,-3.721 1.061,-5.401 C 98.035,91.535 87.467,85.617 78.754,80.724 l -0.697,-0.39 c -0.435,-0.245 -0.888,-0.49 -1.358,-0.744 -3.17,-1.725 -6.766,-3.676 -8.224,-6.736 -1.286,-2.723 -1.294,-5.119 -0.027,-7.144 1.594,-2.533 4.863,-3.858 7.272,-3.858 0.571,0 1.069,0.082 1.458,0.236 -0.018,2.423 -0.571,12.663 -0.58,12.772 l -0.018,0.363 0.362,0.046 c 0.19,0.018 0.372,0.027 0.561,0.027 1.83,0 3.523,-1.026 4.8,-2.397 1.285,-1.37 2.147,-3.086 2.311,-4.475 0.333,-2.914 -3.207,-6.781 -5.335,-8.37 0.127,-0.971 0.498,-4.028 0.941,-7.721 -0.001,0 -0.001,0.001 -0.001,0.001 0.026,-0.246 0.054,-0.473 0.08,-0.718 0.906,-7.543 2.047,-17.248 2.065,-17.402 L 82.373,34.16 82.364,34.123 C 82.292,33.551 82.013,33.174 81.656,32.918 81.02,32.467 80.13,32.401 79.649,32.367 79.599,32.363 79.561,32.358 79.517,32.353 79.472,32.349 79.42,32.344 79.384,32.344 l -0.22,-0.027 -0.213,-0.022 0.012,0.448 z"
   id="path18958"
   style="fill:#ed1c24" />
<path
   d="m 58.957,132.442 c 0.156,0 0.9,0.416 1.923,0.409 0.334,-0.004 0.697,-0.053 1.081,-0.178 1.176,-0.386 5.022,0.256 10.483,0.559 5.97,0.327 13.871,0.247 22.342,-2.027 -24.222,2.148 -27.003,0.071 -32.409,-1.31 0.017,0.003 0.036,0.007 0.052,0.009 -0.016,-0.004 -0.032,-0.009 -0.049,-0.014 5.983,0.917 16.319,3.303 30.932,-0.619 -5.785,0.437 -10.313,0.69 -14.01,0.77 -3.72,0.08 -6.598,-0.017 -9.039,-0.283 -0.007,-0.002 -0.014,-0.002 -0.021,-0.003 -3.321,-0.364 -5.848,-1.044 -8.641,-2.016 0.019,0.006 0.042,0.013 0.06,0.018 -0.021,-0.007 -0.042,-0.015 -0.063,-0.022 4.063,1.172 17.719,3.156 30.246,-0.626 -4.899,0.682 -9.09,1 -12.662,1.077 -13.178,0.293 -17.896,-2.704 -18.245,-2.946 0.003,0.001 0.012,0.004 0.016,0.005 -0.003,-0.002 -0.011,-0.008 -0.014,-0.009 0.598,0.181 14.573,4.649 29.018,0.389 -12.314,1.646 -19.811,0.673 -24.194,-0.598 -0.023,-0.007 -0.048,-0.014 -0.071,-0.021 -0.029,-0.008 -0.054,-0.017 -0.082,-0.025 -3.344,-0.989 -4.828,-2.143 -5.24,-2.378 -0.236,-0.135 -0.551,-0.431 -0.892,-0.799 -0.91,-0.978 -2.001,-2.452 -2.277,-2.705 -0.032,-0.028 -0.057,-0.046 -0.064,-0.036 -0.173,0.216 -0.978,10.874 1.82,13.379 z"
   id="path18960"
   style="fill:#ffffff" />
<path
   d="m 55.859,38.054 c 2.88,-6.255 13.096,-9.867 19.409,-10.721 5.913,-0.796 10.419,1.22 10.763,1.432 -0.104,-0.233 -0.213,-0.471 -0.321,-0.704 -0.068,-0.145 -0.133,-0.292 -0.201,-0.439 -0.112,-0.246 -0.227,-0.486 -0.336,-0.739 l -0.751,-1.888 c -15.316,-2.382 -24.109,4.54 -27.969,10.448 -0.55,0.843 -1,1.666 -1.354,2.438 l 0.76,0.173 z"
   id="path18962"
   style="fill:#ffffff" />
<g
   id="g18964">
	<path
   d="m 112.028,175.403 h 2.3 l -0.715,-1.68 c -0.153,-0.354 -0.309,-0.78 -0.444,-1.162 -0.127,0.382 -0.271,0.809 -0.425,1.162 l -0.716,1.68 z"
   id="path18966" />
	<path
   d="m 112.807,171.2 c 0,0.01 -0.382,1.371 -0.752,2.233 l -1.159,2.724 h 4.564 l -1.159,-2.724 c -0.372,-0.872 -0.77,-2.224 -0.78,-2.242 l -0.36,-1.253 -0.354,1.262 z m 0.806,2.524 0.715,1.68 h -2.3 l 0.716,-1.68 c 0.154,-0.354 0.298,-0.78 0.425,-1.162 0.135,0.381 0.29,0.808 0.444,1.162 z"
   id="path18968"
   style="fill:#ed1c24" />
	<path
   d="m 107.924,179.034 h 1.767 l 0.615,-1.442 h 5.798 l 0.605,1.442 h 1.992 l -5.497,-11.791 -5.28,11.791 z m 6.377,-5.6 1.159,2.724 h -4.564 l 1.159,-2.724 c 0.37,-0.862 0.752,-2.224 0.752,-2.233 l 0.354,-1.262 0.36,1.253 c 0.011,0.018 0.408,1.37 0.78,2.242 z"
   id="path18970"
   style="fill:#ffde17" />
	<path
   d="m 112.851,166.218 -6.076,13.561 h 3.414 l 0.615,-1.435 h 4.801 l 0.616,1.435 h 3.649 l -6.313,-13.561 h -0.706 z m 3.858,12.816 -0.605,-1.442 h -5.798 l -0.615,1.442 h -1.767 l 5.28,-11.791 5.497,11.791 h -1.992 z"
   id="path18972"
   style="fill:#ed1c24" />
	<path
   d="m 101.441,177.609 c -2.509,0 -4.329,-1.916 -4.329,-4.558 0,-2.614 1.82,-4.52 4.329,-4.52 1.349,0 2.499,0.535 3.251,1.525 l 1.44,-1 c -1.078,-1.451 -2.582,-2.124 -4.691,-2.124 -3.623,0 -6.35,2.634 -6.35,6.118 0,3.505 2.727,6.146 6.35,6.146 2.082,0 3.785,-0.798 4.917,-2.323 l -1.467,-0.989 c -0.642,0.862 -1.63,1.725 -3.45,1.725 z"
   id="path18974"
   style="fill:#ffde17" />
	<path
   d="m 107.4,176.665 -2.708,-1.815 -0.208,0.308 c -0.797,1.199 -1.712,1.708 -3.043,1.708 -2.111,0 -3.587,-1.57 -3.587,-3.813 0,-2.214 1.476,-3.768 3.587,-3.768 1.575,0 2.419,0.809 2.843,1.49 l 0.209,0.326 2.681,-1.852 -0.208,-0.3 c -1.223,-1.861 -3.034,-2.769 -5.524,-2.769 -4.049,0 -7.091,2.959 -7.091,6.871 0,3.932 3.042,6.899 7.091,6.899 2.48,0 4.474,-1.025 5.76,-2.978 l 0.198,-0.307 z m -5.959,2.532 c -3.623,0 -6.35,-2.641 -6.35,-6.146 0,-3.484 2.727,-6.118 6.35,-6.118 2.109,0 3.613,0.673 4.691,2.124 l -1.44,1 c -0.752,-0.99 -1.902,-1.525 -3.251,-1.525 -2.509,0 -4.329,1.905 -4.329,4.52 0,2.642 1.82,4.558 4.329,4.558 1.82,0 2.808,-0.863 3.45,-1.725 l 1.467,0.989 c -1.132,1.525 -2.835,2.323 -4.917,2.323 z"
   id="path18976"
   style="fill:#ed1c24" />
	<path
   d="m 92.184,176.738 c -0.707,0 -1.258,0.526 -1.258,1.189 0,0.698 0.543,1.216 1.258,1.216 0.607,0 1.241,-0.454 1.241,-1.216 0,-0.662 -0.543,-1.189 -1.241,-1.189 z"
   id="path18978"
   style="fill:#ffde17" />
	<path
   d="m 92.184,175.984 c -1.123,0 -2,0.854 -2,1.943 0,1.098 0.877,1.961 2,1.961 1.114,0 1.984,-0.863 1.984,-1.961 0,-1.089 -0.87,-1.943 -1.984,-1.943 z m 0,3.16 c -0.715,0 -1.258,-0.518 -1.258,-1.216 0,-0.663 0.551,-1.189 1.258,-1.189 0.698,0 1.241,0.526 1.241,1.189 0,0.761 -0.633,1.216 -1.241,1.216 z"
   id="path18980"
   style="fill:#ed1c24" />
	<path
   d="m 85.99,173.969 -0.769,-0.154 0.605,-0.508 c 0,0 0.217,-0.182 0.453,-0.5 l 2.082,-2.777 h -6.873 v 1.345 h 2.654 c 0.524,0 1.104,-0.092 1.113,-0.092 l 1.331,-0.2 -1.031,0.864 c -0.01,0 -0.363,0.298 -0.635,0.661 l -1.776,2.405 c 0.282,-0.063 0.635,-0.108 1.097,-0.108 1.513,0 2.536,0.908 2.536,2.26 0,1.354 -0.924,2.298 -2.256,2.298 -1.112,0 -1.927,-0.463 -2.417,-1.381 l -1.559,0.79 c 0.833,1.38 2.174,2.078 3.976,2.078 2.944,0 4.257,-1.869 4.257,-3.73 10e-4,-1.997 -1.502,-3.006 -2.788,-3.251 z"
   id="path18982"
   style="fill:#ffde17" />
	<path
   d="m 86.769,173.407 c 0.036,-0.047 0.072,-0.092 0.108,-0.146 l 2.454,-3.276 v -0.701 h -8.595 v 2.843 h 3.406 c 0.073,0 0.135,0 0.207,-0.01 -0.009,0.019 -0.019,0.027 -0.026,0.046 l -2.409,3.24 0.579,0.681 0.263,-0.136 c 0.299,-0.154 0.688,-0.3 1.485,-0.3 0.824,0 1.794,0.399 1.794,1.516 0,0.944 -0.589,1.553 -1.514,1.553 -0.94,0 -1.549,-0.408 -1.892,-1.28 l -0.155,-0.38 -2.943,1.496 0.173,0.326 c 0.651,1.29 2.02,2.825 4.817,2.825 3.442,0 5.001,-2.325 5.001,-4.485 10e-4,-2.006 -1.295,-3.295 -2.753,-3.812 z m -2.247,7.542 c -1.802,0 -3.143,-0.698 -3.976,-2.078 l 1.559,-0.79 c 0.49,0.918 1.305,1.381 2.417,1.381 1.332,0 2.256,-0.944 2.256,-2.298 0,-1.352 -1.023,-2.26 -2.536,-2.26 -0.462,0 -0.814,0.045 -1.097,0.108 l 1.776,-2.405 c 0.271,-0.363 0.625,-0.661 0.635,-0.661 l 1.031,-0.864 -1.331,0.2 c -0.01,0 -0.589,0.092 -1.113,0.092 h -2.654 v -1.345 h 6.873 l -2.082,2.777 c -0.236,0.318 -0.453,0.5 -0.453,0.5 l -0.605,0.508 0.769,0.154 c 1.286,0.245 2.789,1.254 2.789,3.25 -0.001,1.862 -1.314,3.731 -4.258,3.731 z"
   id="path18984"
   style="fill:#ed1c24" />
	<polygon
   points="77.241,174.904 77.241,173.415 72.007,173.415 72.007,168.632 77.947,168.632 77.947,167.079 70.059,167.079 70.059,179.034 78.219,179.034 78.219,177.482 72.007,177.482 72.007,174.904 "
   id="polygon18986"
   style="fill:#ffde17" />
	<path
   d="m 72.75,175.648 h 5.243 v -2.987 H 72.75 v -3.285 h 5.95 v -3.04 h -9.382 v 13.442 h 9.654 v -3.04 H 72.75 v -1.09 z m 5.469,1.834 v 1.552 h -8.16 v -11.955 h 7.888 v 1.553 h -5.94 v 4.783 h 5.234 v 1.489 h -5.234 v 2.578 h 6.212 z"
   id="path18988"
   style="fill:#ed1c24" />
	<polygon
   points="63.611,179.034 63.611,168.632 67.333,168.632 67.333,167.079 57.951,167.079 57.951,168.632 61.673,168.632 61.673,179.034 "
   id="polygon18990"
   style="fill:#ffde17" />
	<path
   d="m 57.199,169.376 h 3.731 v 10.402 h 3.433 v -10.402 h 3.722 v -3.04 H 57.199 v 3.04 z m 0.752,-2.297 h 9.382 v 1.553 H 63.61 v 10.402 H 61.672 V 168.632 H 57.95 v -1.553 z"
   id="path18992"
   style="fill:#ed1c24" />
	<rect
   width="1.938"
   height="11.955"
   x="53.25"
   y="167.07899"
   id="rect18994"
   style="fill:#ffde17" />
	<path
   d="m 52.499,179.778 h 3.433 v -13.442 h -3.433 v 13.442 z m 0.751,-12.699 h 1.938 v 11.955 H 53.25 v -11.955 z"
   id="path18996"
   style="fill:#ed1c24" />
	<path
   d="m 47.011,172.172 -0.67,-0.281 c -1.104,-0.463 -1.884,-0.871 -1.884,-1.935 0,-0.871 0.697,-1.497 1.657,-1.497 0.797,0 1.368,0.301 1.848,0.98 l 1.458,-0.907 c -0.761,-1.117 -1.766,-1.599 -3.306,-1.599 -2.091,0 -3.559,1.262 -3.559,3.078 0,1.952 1.195,2.85 2.997,3.594 l 0.67,0.281 c 1.268,0.545 2.192,0.936 2.192,2.079 0,0.981 -0.906,1.671 -2.201,1.671 -1.449,0 -2.264,-0.771 -2.771,-1.471 l -1.558,0.88 c 0.878,1.389 2.418,2.151 4.383,2.151 1.974,0 4.084,-0.854 4.084,-3.268 10e-4,-1.986 -1.176,-2.858 -3.34,-3.756 z"
   id="path18998"
   style="fill:#ffde17" />
	<path
   d="M 47.3,171.481 46.63,171.2 c -1.159,-0.49 -1.421,-0.726 -1.421,-1.244 0,-0.453 0.353,-0.744 0.905,-0.744 0.635,0 1.015,0.255 1.404,0.926 l 0.2,0.346 2.726,-1.707 -0.182,-0.317 c -0.905,-1.553 -2.228,-2.278 -4.148,-2.278 -2.535,0 -4.301,1.579 -4.301,3.831 0,2.505 1.657,3.54 3.451,4.284 l 0.67,0.282 c 1.304,0.554 1.729,0.789 1.729,1.388 0,0.545 -0.579,0.917 -1.449,0.917 -1.014,0 -1.712,-0.427 -2.336,-1.416 l -0.182,-0.299 -2.817,1.588 0.163,0.317 c 0.951,1.825 2.854,2.878 5.226,2.878 2.935,0 4.827,-1.579 4.827,-4.021 0,-2.388 -1.449,-3.479 -3.795,-4.45 z m -1.032,7.716 c -1.965,0 -3.505,-0.763 -4.383,-2.151 l 1.558,-0.88 c 0.507,0.699 1.323,1.471 2.771,1.471 1.295,0 2.201,-0.689 2.201,-1.671 0,-1.144 -0.924,-1.534 -2.192,-2.079 l -0.67,-0.281 c -1.802,-0.744 -2.997,-1.642 -2.997,-3.594 0,-1.816 1.467,-3.078 3.559,-3.078 1.54,0 2.545,0.481 3.306,1.599 l -1.458,0.907 c -0.48,-0.68 -1.051,-0.98 -1.848,-0.98 -0.96,0 -1.657,0.626 -1.657,1.497 0,1.063 0.78,1.472 1.884,1.935 l 0.67,0.281 c 2.164,0.898 3.341,1.771 3.341,3.758 -0.001,2.413 -2.111,3.266 -4.085,3.266 z"
   id="path19000"
   style="fill:#ed1c24" />
</g>
</svg>