<?xml version="1.0" encoding="UTF-8" standalone="no"?>
<!-- Created with Inkscape (http://www.inkscape.org/) -->
<svg
   xmlns:svg="http://www.w3.org/2000/svg"
   xmlns="http://www.w3.org/2000/svg"
   version="1.0"
   width="600"
   height="228"
   id="svg2">
  <defs
     id="defs53">











</defs>
  <title
     id="title4">generated by pstoedit version:3.44 from c:/docume~1/wraith/locals~1/temp/gsviewa03580</title>
  <g
     transform="matrix(5.1450823,0,0,5.1406839,-213.91474,-3444.4071)"
     id="g7098">
    <g
       style="fill:#ffffff;fill-rule:evenodd;stroke-width:0;stroke-linecap:butt;stroke-linejoin:miter;stroke-miterlimit:2.61299992"
       id="g8">
	<path
   d="M 128.711,681.25 L 121.793,693.625 L 157.863,693.625 L 146.875,708.039 L 113.777,708.008 C 113.777,708.008 110.742,713.984 100.305,714.051 C 89.8672,713.984 86.0195,708.008 86.0195,708.008 L 52.8945,708.039 L 41.9063,693.594 L 77.9727,693.594 L 71.0898,681.25 L 77.7148,681.25 L 73.5469,670.359 L 126.156,670.359 L 121.988,681.25 L 128.711,681.25 z "
   id="path10" />

</g>
    <g
       style="fill:none;stroke:#ff0000;stroke-width:0.65979397;stroke-linecap:butt;stroke-linejoin:miter;stroke-miterlimit:2.61299992;stroke-opacity:1"
       id="g12">
	<path
   d="M 128.711,681.25 L 121.793,693.625 L 157.863,693.625 L 146.875,708.039 L 113.777,708.008 C 113.777,708.008 110.742,713.984 100.305,714.051 C 89.8672,713.984 86.0195,708.008 86.0195,708.008 L 52.8945,708.039 L 41.9063,693.594 L 77.9727,693.594 L 71.0898,681.25 L 77.7148,681.25 L 73.5469,670.359 L 126.156,670.359 L 121.988,681.25 L 128.711,681.25 z "
   style="stroke:#ff0000;stroke-opacity:1"
   id="path14" />

</g>
    <g
       style="fill:#ff0000;fill-opacity:1;fill-rule:evenodd;stroke-width:0;stroke-linecap:butt;stroke-linejoin:miter;stroke-miterlimit:4"
       id="g16">
	<path
   d="M 100.336,711.789 C 105.313,711.855 108.676,709.332 111.262,703.094 L 122.992,672.523 L 76.7773,672.488 L 88.5742,703.094 C 91.125,709.332 95.3281,711.855 100.305,711.789 L 100.336,711.789 z "
   style="fill:#ff0000;fill-opacity:1"
   id="path18" />

</g>
    <g
       style="fill:#ff0000;fill-opacity:1;fill-rule:evenodd;stroke-width:0;stroke-linecap:butt;stroke-linejoin:miter;stroke-miterlimit:4"
       id="g20">
	<path
   d="M 79.2305,695.727 L 84.8555,705.68 L 54.1211,705.68 L 46.5273,695.727 L 79.2305,695.727 z "
   style="fill:#ff0000;fill-opacity:1"
   id="path22" />

</g>
    <g
       style="fill:#ff0000;fill-opacity:1;fill-rule:evenodd;stroke-width:0;stroke-linecap:butt;stroke-linejoin:miter;stroke-miterlimit:4"
       id="g24">
	<path
   d="M 120.535,695.727 L 114.945,705.68 L 145.645,705.68 L 153.238,695.727 L 120.535,695.727 z "
   style="fill:#ff0000;fill-opacity:1"
   id="path26" />

</g>
    <g
       style="fill:#ffffff;fill-rule:evenodd;stroke-width:0;stroke-linecap:butt;stroke-linejoin:miter;stroke-miterlimit:2.61299992"
       id="g28">
	<path
   d="M 99.4297,689.133 C 99.4297,689.133 107.445,688.488 110.32,692.43 L 111.422,691.816 L 108.543,688.648 C 108.543,688.648 108.156,689.133 107.512,689.133 C 106.832,689.133 106.023,688.844 106.023,688.844 C 103.828,688.102 101.691,687.582 99.1094,687.582 C 92.4492,687.582 87.4727,690.59 87.6328,694.465 C 87.8633,698.957 93.0977,700.734 95.5859,701.223 C 98.0117,701.672 105.152,703.387 111.293,697.375 L 110.387,696.504 C 103.02,703.289 94.6797,698.215 94.6797,698.215 C 93.0977,697.313 91.9961,695.824 91.9961,694.336 C 91.9961,691.621 95.3594,689.23 99.4297,689.133 z "
   id="path30" />

</g>
    <g
       style="fill:#ffffff;fill-opacity:1;stroke:#ff0000;stroke-width:0.32989699;stroke-linecap:butt;stroke-linejoin:miter;stroke-miterlimit:2.61299992;stroke-opacity:1"
       id="g32">
	<path
   d="M 99.4297,689.133 C 99.4297,689.133 107.445,688.488 110.32,692.43 L 111.422,691.816 L 108.543,688.648 C 108.543,688.648 108.156,689.133 107.512,689.133 C 106.832,689.133 106.023,688.844 106.023,688.844 C 103.828,688.102 101.691,687.582 99.1094,687.582 C 92.4492,687.582 87.4727,690.59 87.6328,694.465 C 87.8633,698.957 93.0977,700.734 95.5859,701.223 C 98.0117,701.672 105.152,703.387 111.293,697.375 L 110.387,696.504 C 103.02,703.289 94.6797,698.215 94.6797,698.215 C 93.0977,697.313 91.9961,695.824 91.9961,694.336 C 91.9961,691.621 95.3594,689.23 99.4297,689.133 z "
   style="fill:#ffffff;fill-opacity:1;stroke:#ff0000;stroke-opacity:1"
   id="path34" />

</g>
    <g
       style="fill:#ffffff;fill-rule:evenodd;stroke-width:0;stroke-linecap:butt;stroke-linejoin:miter;stroke-miterlimit:2.61299992"
       id="g36">
	<path
   d="M 109.742,683.93 L 112.164,687.129 L 111.293,687.969 C 111.293,687.969 109.836,685.902 107.738,685.902 L 103.246,685.902 L 103.246,698.926 C 103.246,702.418 106.445,701.996 106.445,701.996 L 106.445,703.418 L 96.168,703.418 L 96.168,701.996 C 96.168,701.996 99.3359,702.418 99.3359,698.926 L 99.3359,685.902 L 94.875,685.902 C 92.7734,685.902 91.3203,687.937 91.3203,687.937 L 90.4805,687.098 L 92.8711,683.93 L 109.742,683.93 z "
   id="path38" />

</g>
    <g
       style="fill:none;stroke:#ff0000;stroke-width:0.32989699;stroke-linecap:butt;stroke-linejoin:miter;stroke-miterlimit:2.61299992;stroke-opacity:1"
       id="g40">
	<path
   d="M 109.742,683.93 L 112.164,687.129 L 111.293,687.969 C 111.293,687.969 109.836,685.902 107.738,685.902 L 103.246,685.902 L 103.246,698.926 C 103.246,702.418 106.445,701.996 106.445,701.996 L 106.445,703.418 L 96.168,703.418 L 96.168,701.996 C 96.168,701.996 99.3359,702.418 99.3359,698.926 L 99.3359,685.902 L 94.875,685.902 C 92.7734,685.902 91.3203,687.937 91.3203,687.937 L 90.4805,687.098 L 92.8711,683.93 L 109.742,683.93 z "
   style="stroke:#ff0000;stroke-opacity:1"
   id="path42" />

</g>
    <g
       style="fill:#ffffff;fill-rule:evenodd;stroke:#ff0000;stroke-width:0;stroke-linecap:butt;stroke-linejoin:miter;stroke-miterlimit:2.61299992;stroke-opacity:1"
       id="g44">
	<path
   d="M 104.473,678.953 L 106.898,682.152 L 106.023,682.992 C 106.023,682.992 104.57,680.926 102.469,680.926 L 97.9766,680.926 L 97.9766,693.949 C 97.9766,697.441 101.176,697.02 101.176,697.02 L 101.176,698.441 L 90.8984,698.441 L 90.8984,697.02 C 90.8984,697.02 94.0664,697.441 94.0664,693.949 L 94.0664,680.926 L 89.6094,680.926 C 87.5039,680.926 86.0508,682.961 86.0508,682.961 L 85.2109,682.121 L 87.6016,678.953 L 104.473,678.953 z "
   style="stroke:#ff0000;stroke-opacity:1"
   id="path46" />

</g>
    <g
       style="fill:none;stroke:#ff0000;stroke-width:0.32989699;stroke-linecap:butt;stroke-linejoin:miter;stroke-miterlimit:2.61299992;stroke-opacity:1"
       id="g48">
	<path
   d="M 104.473,678.953 L 106.898,682.152 L 106.023,682.992 C 106.023,682.992 104.57,680.926 102.469,680.926 L 97.9766,680.926 L 97.9766,693.949 C 97.9766,697.441 101.176,697.02 101.176,697.02 L 101.176,698.441 L 90.8984,698.441 L 90.8984,697.02 C 90.8984,697.02 94.0664,697.441 94.0664,693.949 L 94.0664,680.926 L 89.6094,680.926 C 87.5039,680.926 86.0508,682.961 86.0508,682.961 L 85.2109,682.121 L 87.6016,678.953 L 104.473,678.953 z "
   style="stroke:#ff0000;stroke-opacity:1"
   id="path50" />

</g>
  </g>
</svg>
